<mxfile host="app.diagrams.net" modified="2023-04-10T03:14:53.593Z" agent="5.0 (Macintosh; Intel Mac OS X 10_15_7) AppleWebKit/537.36 (KHTML, like Gecko) Chrome/110.0.0.0 Safari/537.36" etag="GqVjBsKsa8fIuRCC4uek" version="20.8.1" type="github">
  <diagram id="Zzuj6kyc0NtODS7EQ0n3" name="第 1 页">
    <mxGraphModel dx="1687" dy="1336" grid="0" gridSize="10" guides="1" tooltips="1" connect="1" arrows="1" fold="1" page="0" pageScale="1" pageWidth="827" pageHeight="1169" math="0" shadow="0">
      <root>
        <mxCell id="0" />
        <mxCell id="1" parent="0" />
        <mxCell id="ozSnwrf6JVXW-IfmkyOd-236" value="" style="shape=partialRectangle;whiteSpace=wrap;html=1;bottom=1;right=1;left=1;top=0;fillColor=none;routingCenterX=-0.5;glass=0;fillStyle=auto;fontFamily=Verdana;fontSize=12;" vertex="1" parent="1">
          <mxGeometry x="200" y="1775" width="320" height="60" as="geometry" />
        </mxCell>
        <mxCell id="ozSnwrf6JVXW-IfmkyOd-238" value="" style="shape=partialRectangle;whiteSpace=wrap;html=1;bottom=1;right=1;left=1;top=0;fillColor=none;routingCenterX=-0.5;glass=0;fillStyle=auto;fontFamily=Verdana;fontSize=12;" vertex="1" parent="1">
          <mxGeometry x="200" y="1772" width="400" height="100" as="geometry" />
        </mxCell>
        <mxCell id="ozSnwrf6JVXW-IfmkyOd-247" value="" style="shape=partialRectangle;whiteSpace=wrap;html=1;bottom=1;right=1;left=1;top=0;fillColor=none;routingCenterX=-0.5;glass=0;fillStyle=auto;fontFamily=Verdana;fontSize=12;" vertex="1" parent="1">
          <mxGeometry x="279" y="1775" width="161" height="135" as="geometry" />
        </mxCell>
        <mxCell id="ozSnwrf6JVXW-IfmkyOd-250" value="" style="shape=partialRectangle;whiteSpace=wrap;html=1;bottom=1;right=1;left=1;top=0;fillColor=none;routingCenterX=-0.5;glass=0;fillStyle=auto;fontFamily=Verdana;fontSize=12;" vertex="1" parent="1">
          <mxGeometry x="279" y="1776" width="241" height="170" as="geometry" />
        </mxCell>
        <mxCell id="ozSnwrf6JVXW-IfmkyOd-252" value="" style="shape=partialRectangle;whiteSpace=wrap;html=1;bottom=1;right=1;left=1;top=0;fillColor=none;routingCenterX=-0.5;glass=0;fillStyle=auto;fontFamily=Verdana;fontSize=12;" vertex="1" parent="1">
          <mxGeometry x="279.5" y="1781" width="320.5" height="200" as="geometry" />
        </mxCell>
        <mxCell id="z94i8-MBYvWFF0PzjlSv-24" value="" style="shape=curlyBracket;whiteSpace=wrap;html=1;rounded=1;labelPosition=left;verticalLabelPosition=middle;align=right;verticalAlign=middle;fontFamily=Verdana;fontSize=12;rotation=-90;" parent="1" vertex="1">
          <mxGeometry x="150" y="544" width="20" height="160" as="geometry" />
        </mxCell>
        <mxCell id="z94i8-MBYvWFF0PzjlSv-25" value="&lt;font style=&quot;font-size: 14px;&quot;&gt;待分类文本&lt;/font&gt;" style="text;html=1;strokeColor=none;fillColor=none;align=center;verticalAlign=middle;whiteSpace=wrap;rounded=0;fontFamily=Verdana;fontSize=12;rotation=0;" parent="1" vertex="1">
          <mxGeometry x="121" y="641" width="80" height="30" as="geometry" />
        </mxCell>
        <mxCell id="z94i8-MBYvWFF0PzjlSv-26" value="" style="shape=curlyBracket;whiteSpace=wrap;html=1;rounded=1;labelPosition=left;verticalLabelPosition=middle;align=right;verticalAlign=middle;fontFamily=Verdana;fontSize=12;rotation=-90;" parent="1" vertex="1">
          <mxGeometry x="330" y="563" width="20" height="120" as="geometry" />
        </mxCell>
        <mxCell id="z94i8-MBYvWFF0PzjlSv-27" value="类别1" style="text;html=1;strokeColor=none;fillColor=none;align=center;verticalAlign=middle;whiteSpace=wrap;rounded=0;fontFamily=Verdana;fontSize=14;rotation=0;" parent="1" vertex="1">
          <mxGeometry x="315" y="640" width="50" height="30" as="geometry" />
        </mxCell>
        <mxCell id="z94i8-MBYvWFF0PzjlSv-28" value="" style="shape=curlyBracket;whiteSpace=wrap;html=1;rounded=1;labelPosition=left;verticalLabelPosition=middle;align=right;verticalAlign=middle;fontFamily=Verdana;fontSize=12;rotation=-90;" parent="1" vertex="1">
          <mxGeometry x="490" y="563" width="20" height="120" as="geometry" />
        </mxCell>
        <mxCell id="z94i8-MBYvWFF0PzjlSv-29" value="类别2" style="text;html=1;strokeColor=none;fillColor=none;align=center;verticalAlign=middle;whiteSpace=wrap;rounded=0;fontFamily=Verdana;fontSize=14;rotation=0;" parent="1" vertex="1">
          <mxGeometry x="475" y="641" width="50" height="30" as="geometry" />
        </mxCell>
        <mxCell id="z94i8-MBYvWFF0PzjlSv-30" value="" style="shape=curlyBracket;whiteSpace=wrap;html=1;rounded=1;labelPosition=left;verticalLabelPosition=middle;align=right;verticalAlign=middle;fontFamily=Verdana;fontSize=12;rotation=-90;" parent="1" vertex="1">
          <mxGeometry x="690" y="563" width="20" height="120" as="geometry" />
        </mxCell>
        <mxCell id="z94i8-MBYvWFF0PzjlSv-31" value="类别N" style="text;html=1;strokeColor=none;fillColor=none;align=center;verticalAlign=middle;whiteSpace=wrap;rounded=0;fontFamily=Verdana;fontSize=14;rotation=0;" parent="1" vertex="1">
          <mxGeometry x="675" y="641" width="50" height="30" as="geometry" />
        </mxCell>
        <mxCell id="z94i8-MBYvWFF0PzjlSv-74" value="" style="shape=curlyBracket;whiteSpace=wrap;html=1;rounded=1;labelPosition=left;verticalLabelPosition=middle;align=right;verticalAlign=middle;fontFamily=Verdana;fontSize=12;rotation=-90;" parent="1" vertex="1">
          <mxGeometry x="832" y="642" width="20" height="120" as="geometry" />
        </mxCell>
        <mxCell id="z94i8-MBYvWFF0PzjlSv-75" value="关系矩阵" style="text;html=1;strokeColor=none;fillColor=none;align=center;verticalAlign=middle;whiteSpace=wrap;rounded=0;fontFamily=Verdana;fontSize=14;rotation=0;" parent="1" vertex="1">
          <mxGeometry x="811" y="721" width="60" height="30" as="geometry" />
        </mxCell>
        <mxCell id="z94i8-MBYvWFF0PzjlSv-77" value="Relation Aware Self-Attention Network" style="rounded=0;whiteSpace=wrap;html=1;fontFamily=Verdana;fontSize=27;labelPosition=center;verticalLabelPosition=middle;align=center;verticalAlign=middle;rotation=0;fillStyle=auto;fillColor=#f5f5f5;fontColor=#333333;strokeColor=#666666;glass=0;" parent="1" vertex="1">
          <mxGeometry x="81" y="282" width="821.5" height="121" as="geometry" />
        </mxCell>
        <mxCell id="z94i8-MBYvWFF0PzjlSv-83" value="" style="rounded=0;whiteSpace=wrap;html=1;glass=0;fillStyle=auto;fontFamily=Verdana;fontSize=27;labelPosition=center;verticalLabelPosition=top;align=center;verticalAlign=bottom;fillColor=#647687;strokeColor=#314354;fontColor=#ffffff;rotation=-90;" parent="1" vertex="1">
          <mxGeometry x="40" y="476" width="120" height="10" as="geometry" />
        </mxCell>
        <mxCell id="z94i8-MBYvWFF0PzjlSv-86" value="" style="endArrow=none;dashed=1;html=1;dashPattern=1 3;strokeWidth=3;rounded=0;fontFamily=Verdana;fontSize=34;strokeColor=#FFFFFF;" parent="1" edge="1">
          <mxGeometry width="50" height="50" relative="1" as="geometry">
            <mxPoint x="100" y="531" as="sourcePoint" />
            <mxPoint x="100" y="426" as="targetPoint" />
          </mxGeometry>
        </mxCell>
        <mxCell id="z94i8-MBYvWFF0PzjlSv-87" value="" style="rounded=0;whiteSpace=wrap;html=1;glass=0;fillStyle=auto;fontFamily=Verdana;fontSize=27;labelPosition=center;verticalLabelPosition=top;align=center;verticalAlign=bottom;fillColor=#647687;strokeColor=#314354;fontColor=#ffffff;rotation=-90;" parent="1" vertex="1">
          <mxGeometry x="79" y="476" width="120" height="10" as="geometry" />
        </mxCell>
        <mxCell id="z94i8-MBYvWFF0PzjlSv-88" value="" style="endArrow=none;dashed=1;html=1;dashPattern=1 3;strokeWidth=3;rounded=0;fontFamily=Verdana;fontSize=34;strokeColor=#FFFFFF;" parent="1" edge="1">
          <mxGeometry width="50" height="50" relative="1" as="geometry">
            <mxPoint x="139" y="531" as="sourcePoint" />
            <mxPoint x="139" y="425" as="targetPoint" />
          </mxGeometry>
        </mxCell>
        <mxCell id="z94i8-MBYvWFF0PzjlSv-89" value="" style="rounded=0;whiteSpace=wrap;html=1;glass=0;fillStyle=auto;fontFamily=Verdana;fontSize=27;labelPosition=center;verticalLabelPosition=top;align=center;verticalAlign=bottom;fillColor=#647687;strokeColor=#314354;fontColor=#ffffff;rotation=-90;" parent="1" vertex="1">
          <mxGeometry x="159" y="477" width="120" height="10" as="geometry" />
        </mxCell>
        <mxCell id="z94i8-MBYvWFF0PzjlSv-90" value="" style="endArrow=none;dashed=1;html=1;dashPattern=1 3;strokeWidth=3;rounded=0;fontFamily=Verdana;fontSize=34;strokeColor=#FFFFFF;" parent="1" edge="1">
          <mxGeometry width="50" height="50" relative="1" as="geometry">
            <mxPoint x="219" y="530" as="sourcePoint" />
            <mxPoint x="219" y="426" as="targetPoint" />
          </mxGeometry>
        </mxCell>
        <mxCell id="z94i8-MBYvWFF0PzjlSv-91" value="" style="rounded=0;whiteSpace=wrap;html=1;glass=0;fillStyle=auto;fontFamily=Verdana;fontSize=27;labelPosition=center;verticalLabelPosition=top;align=center;verticalAlign=bottom;fillColor=#647687;strokeColor=#314354;fontColor=#ffffff;rotation=-90;" parent="1" vertex="1">
          <mxGeometry x="201" y="476" width="120" height="10" as="geometry" />
        </mxCell>
        <mxCell id="z94i8-MBYvWFF0PzjlSv-92" value="" style="endArrow=none;dashed=1;html=1;dashPattern=1 3;strokeWidth=3;rounded=0;fontFamily=Verdana;fontSize=34;strokeColor=#FFFFFF;" parent="1" edge="1">
          <mxGeometry width="50" height="50" relative="1" as="geometry">
            <mxPoint x="260" y="530" as="sourcePoint" />
            <mxPoint x="260" y="425" as="targetPoint" />
          </mxGeometry>
        </mxCell>
        <mxCell id="z94i8-MBYvWFF0PzjlSv-93" value="" style="rounded=0;whiteSpace=wrap;html=1;glass=0;fillStyle=auto;fontFamily=Verdana;fontSize=27;labelPosition=center;verticalLabelPosition=top;align=center;verticalAlign=bottom;fillColor=#647687;strokeColor=#314354;fontColor=#ffffff;rotation=-90;" parent="1" vertex="1">
          <mxGeometry x="240" y="477" width="120" height="10" as="geometry" />
        </mxCell>
        <mxCell id="z94i8-MBYvWFF0PzjlSv-94" value="" style="endArrow=none;dashed=1;html=1;dashPattern=1 3;strokeWidth=3;rounded=0;fontFamily=Verdana;fontSize=34;strokeColor=#FFFFFF;" parent="1" edge="1">
          <mxGeometry width="50" height="50" relative="1" as="geometry">
            <mxPoint x="300" y="530" as="sourcePoint" />
            <mxPoint x="301" y="426" as="targetPoint" />
          </mxGeometry>
        </mxCell>
        <mxCell id="z94i8-MBYvWFF0PzjlSv-95" value="" style="rounded=0;whiteSpace=wrap;html=1;glass=0;fillStyle=auto;fontFamily=Verdana;fontSize=27;labelPosition=center;verticalLabelPosition=top;align=center;verticalAlign=bottom;fillColor=#647687;strokeColor=#314354;fontColor=#ffffff;rotation=-90;" parent="1" vertex="1">
          <mxGeometry x="321" y="476" width="120" height="10" as="geometry" />
        </mxCell>
        <mxCell id="z94i8-MBYvWFF0PzjlSv-96" value="" style="endArrow=none;dashed=1;html=1;dashPattern=1 3;strokeWidth=3;rounded=0;fontFamily=Verdana;fontSize=34;strokeColor=#FFFFFF;" parent="1" edge="1">
          <mxGeometry width="50" height="50" relative="1" as="geometry">
            <mxPoint x="380" y="531" as="sourcePoint" />
            <mxPoint x="380" y="426" as="targetPoint" />
          </mxGeometry>
        </mxCell>
        <mxCell id="z94i8-MBYvWFF0PzjlSv-97" value="" style="rounded=0;whiteSpace=wrap;html=1;glass=0;fillStyle=auto;fontFamily=Verdana;fontSize=27;labelPosition=center;verticalLabelPosition=top;align=center;verticalAlign=bottom;fillColor=#647687;strokeColor=#314354;fontColor=#ffffff;rotation=-90;" parent="1" vertex="1">
          <mxGeometry x="360" y="477" width="120" height="10" as="geometry" />
        </mxCell>
        <mxCell id="z94i8-MBYvWFF0PzjlSv-98" value="" style="endArrow=none;dashed=1;html=1;dashPattern=1 3;strokeWidth=3;rounded=0;fontFamily=Verdana;fontSize=34;strokeColor=#FFFFFF;" parent="1" edge="1">
          <mxGeometry width="50" height="50" relative="1" as="geometry">
            <mxPoint x="420" y="530" as="sourcePoint" />
            <mxPoint x="421" y="426" as="targetPoint" />
          </mxGeometry>
        </mxCell>
        <mxCell id="z94i8-MBYvWFF0PzjlSv-99" value="" style="rounded=0;whiteSpace=wrap;html=1;glass=0;fillStyle=auto;fontFamily=Verdana;fontSize=27;labelPosition=center;verticalLabelPosition=top;align=center;verticalAlign=bottom;fillColor=#647687;strokeColor=#314354;fontColor=#ffffff;rotation=-90;" parent="1" vertex="1">
          <mxGeometry x="400" y="476" width="120" height="10" as="geometry" />
        </mxCell>
        <mxCell id="z94i8-MBYvWFF0PzjlSv-100" value="" style="endArrow=none;dashed=1;html=1;dashPattern=1 3;strokeWidth=3;rounded=0;fontFamily=Verdana;fontSize=34;strokeColor=#FFFFFF;" parent="1" edge="1">
          <mxGeometry width="50" height="50" relative="1" as="geometry">
            <mxPoint x="460" y="531" as="sourcePoint" />
            <mxPoint x="460" y="425" as="targetPoint" />
          </mxGeometry>
        </mxCell>
        <mxCell id="z94i8-MBYvWFF0PzjlSv-101" value="" style="rounded=0;whiteSpace=wrap;html=1;glass=0;fillStyle=auto;fontFamily=Verdana;fontSize=27;labelPosition=center;verticalLabelPosition=top;align=center;verticalAlign=bottom;fillColor=#647687;strokeColor=#314354;fontColor=#ffffff;rotation=-90;" parent="1" vertex="1">
          <mxGeometry x="480" y="477" width="120" height="10" as="geometry" />
        </mxCell>
        <mxCell id="z94i8-MBYvWFF0PzjlSv-102" value="" style="endArrow=none;dashed=1;html=1;dashPattern=1 3;strokeWidth=3;rounded=0;fontFamily=Verdana;fontSize=34;strokeColor=#FFFFFF;" parent="1" edge="1">
          <mxGeometry width="50" height="50" relative="1" as="geometry">
            <mxPoint x="540" y="531" as="sourcePoint" />
            <mxPoint x="540" y="426" as="targetPoint" />
          </mxGeometry>
        </mxCell>
        <mxCell id="z94i8-MBYvWFF0PzjlSv-103" value="" style="rounded=0;whiteSpace=wrap;html=1;glass=0;fillStyle=auto;fontFamily=Verdana;fontSize=27;labelPosition=center;verticalLabelPosition=top;align=center;verticalAlign=bottom;fillColor=#647687;strokeColor=#314354;fontColor=#ffffff;rotation=-90;" parent="1" vertex="1">
          <mxGeometry x="520" y="476" width="120" height="10" as="geometry" />
        </mxCell>
        <mxCell id="z94i8-MBYvWFF0PzjlSv-104" value="" style="endArrow=none;dashed=1;html=1;dashPattern=1 3;strokeWidth=3;rounded=0;fontFamily=Verdana;fontSize=34;strokeColor=#FFFFFF;" parent="1" edge="1">
          <mxGeometry width="50" height="50" relative="1" as="geometry">
            <mxPoint x="580" y="530" as="sourcePoint" />
            <mxPoint x="580" y="424" as="targetPoint" />
          </mxGeometry>
        </mxCell>
        <mxCell id="z94i8-MBYvWFF0PzjlSv-105" value="" style="rounded=0;whiteSpace=wrap;html=1;glass=0;fillStyle=auto;fontFamily=Verdana;fontSize=27;labelPosition=center;verticalLabelPosition=top;align=center;verticalAlign=bottom;fillColor=#647687;strokeColor=#314354;fontColor=#ffffff;rotation=-90;" parent="1" vertex="1">
          <mxGeometry x="600" y="476" width="120" height="10" as="geometry" />
        </mxCell>
        <mxCell id="z94i8-MBYvWFF0PzjlSv-106" value="" style="endArrow=none;dashed=1;html=1;dashPattern=1 3;strokeWidth=3;rounded=0;fontFamily=Verdana;fontSize=34;strokeColor=#FFFFFF;" parent="1" edge="1">
          <mxGeometry width="50" height="50" relative="1" as="geometry">
            <mxPoint x="660" y="532" as="sourcePoint" />
            <mxPoint x="660" y="427" as="targetPoint" />
          </mxGeometry>
        </mxCell>
        <mxCell id="z94i8-MBYvWFF0PzjlSv-107" value="" style="rounded=0;whiteSpace=wrap;html=1;glass=0;fillStyle=auto;fontFamily=Verdana;fontSize=27;labelPosition=center;verticalLabelPosition=top;align=center;verticalAlign=bottom;fillColor=#647687;strokeColor=#314354;fontColor=#ffffff;rotation=-90;" parent="1" vertex="1">
          <mxGeometry x="680" y="476" width="120" height="10" as="geometry" />
        </mxCell>
        <mxCell id="z94i8-MBYvWFF0PzjlSv-108" value="" style="endArrow=none;dashed=1;html=1;dashPattern=1 3;strokeWidth=3;rounded=0;fontFamily=Verdana;fontSize=34;strokeColor=#FFFFFF;" parent="1" edge="1">
          <mxGeometry width="50" height="50" relative="1" as="geometry">
            <mxPoint x="740" y="529" as="sourcePoint" />
            <mxPoint x="740" y="425" as="targetPoint" />
          </mxGeometry>
        </mxCell>
        <mxCell id="z94i8-MBYvWFF0PzjlSv-110" style="edgeStyle=orthogonalEdgeStyle;rounded=0;orthogonalLoop=1;jettySize=auto;html=1;exitX=0.75;exitY=1;exitDx=0;exitDy=0;strokeColor=#FFFFFF;strokeWidth=3;fontFamily=Verdana;fontSize=34;endArrow=none;endFill=0;" parent="1" source="z94i8-MBYvWFF0PzjlSv-109" edge="1">
          <mxGeometry relative="1" as="geometry">
            <mxPoint x="180" y="501" as="targetPoint" />
          </mxGeometry>
        </mxCell>
        <mxCell id="z94i8-MBYvWFF0PzjlSv-109" value="......" style="text;html=1;strokeColor=none;fillColor=none;align=center;verticalAlign=middle;whiteSpace=wrap;rounded=0;glass=0;fillStyle=auto;fontFamily=Verdana;fontSize=34;rotation=-90;" parent="1" vertex="1">
          <mxGeometry x="145" y="475" width="60" height="30" as="geometry" />
        </mxCell>
        <mxCell id="z94i8-MBYvWFF0PzjlSv-111" value="......" style="text;html=1;strokeColor=none;fillColor=none;align=center;verticalAlign=middle;whiteSpace=wrap;rounded=0;glass=0;fillStyle=auto;fontFamily=Verdana;fontSize=34;rotation=-90;" parent="1" vertex="1">
          <mxGeometry x="305" y="467" width="60" height="30" as="geometry" />
        </mxCell>
        <mxCell id="z94i8-MBYvWFF0PzjlSv-112" value="......" style="text;html=1;strokeColor=none;fillColor=none;align=center;verticalAlign=middle;whiteSpace=wrap;rounded=0;glass=0;fillStyle=auto;fontFamily=Verdana;fontSize=34;rotation=-90;" parent="1" vertex="1">
          <mxGeometry x="461" y="476" width="60" height="30" as="geometry" />
        </mxCell>
        <mxCell id="z94i8-MBYvWFF0PzjlSv-113" value="......" style="text;html=1;strokeColor=none;fillColor=none;align=center;verticalAlign=middle;whiteSpace=wrap;rounded=0;glass=0;fillStyle=auto;fontFamily=Verdana;fontSize=34;rotation=-90;" parent="1" vertex="1">
          <mxGeometry x="575" y="476" width="60" height="30" as="geometry" />
        </mxCell>
        <mxCell id="z94i8-MBYvWFF0PzjlSv-114" value="......" style="text;html=1;strokeColor=none;fillColor=none;align=center;verticalAlign=middle;whiteSpace=wrap;rounded=0;glass=0;fillStyle=auto;fontFamily=Verdana;fontSize=34;rotation=-90;" parent="1" vertex="1">
          <mxGeometry x="665" y="476" width="60" height="30" as="geometry" />
        </mxCell>
        <mxCell id="z94i8-MBYvWFF0PzjlSv-115" value="" style="rounded=0;whiteSpace=wrap;html=1;glass=0;fillStyle=auto;fontFamily=Verdana;fontSize=27;labelPosition=center;verticalLabelPosition=top;align=center;verticalAlign=bottom;fillColor=#D4E1F5;strokeColor=#314354;fontColor=#ffffff;rotation=-90;" parent="1" vertex="1">
          <mxGeometry x="781" y="477" width="120" height="10" as="geometry" />
        </mxCell>
        <mxCell id="z94i8-MBYvWFF0PzjlSv-116" value="" style="endArrow=none;dashed=1;html=1;dashPattern=1 3;strokeWidth=3;rounded=0;fontFamily=Verdana;fontSize=34;strokeColor=#000000;" parent="1" edge="1">
          <mxGeometry width="50" height="50" relative="1" as="geometry">
            <mxPoint x="841" y="530" as="sourcePoint" />
            <mxPoint x="841" y="426" as="targetPoint" />
          </mxGeometry>
        </mxCell>
        <mxCell id="z94i8-MBYvWFF0PzjlSv-117" value="&lt;font style=&quot;font-size: 15px;&quot;&gt;Bert Embedding&lt;/font&gt;" style="text;html=1;strokeColor=none;fillColor=none;align=center;verticalAlign=middle;whiteSpace=wrap;rounded=0;glass=0;fillStyle=auto;fontFamily=Verdana;fontSize=34;rotation=-90;" parent="1" vertex="1">
          <mxGeometry x="-2" y="469" width="150" height="20" as="geometry" />
        </mxCell>
        <mxCell id="z94i8-MBYvWFF0PzjlSv-118" value="&lt;font style=&quot;font-size: 15px;&quot;&gt;Relation Embedding&lt;/font&gt;" style="text;html=1;strokeColor=none;fillColor=none;align=center;verticalAlign=middle;whiteSpace=wrap;rounded=0;glass=0;fillStyle=auto;fontFamily=Verdana;fontSize=34;rotation=-90;" parent="1" vertex="1">
          <mxGeometry x="726" y="471" width="170" height="20" as="geometry" />
        </mxCell>
        <mxCell id="z94i8-MBYvWFF0PzjlSv-119" value="Bi-LSTM" style="rounded=0;whiteSpace=wrap;html=1;fontFamily=Verdana;fontSize=27;labelPosition=center;verticalLabelPosition=middle;align=center;verticalAlign=middle;rotation=0;fillStyle=auto;fillColor=#f5f5f5;fontColor=#333333;strokeColor=#666666;glass=0;" parent="1" vertex="1">
          <mxGeometry x="80" y="144" width="821.5" height="61.38" as="geometry" />
        </mxCell>
        <mxCell id="z94i8-MBYvWFF0PzjlSv-120" value="" style="endArrow=classic;html=1;rounded=0;strokeColor=#000000;strokeWidth=3;fontFamily=Verdana;fontSize=14;" parent="1" edge="1">
          <mxGeometry width="50" height="50" relative="1" as="geometry">
            <mxPoint x="105" y="280" as="sourcePoint" />
            <mxPoint x="105" y="207" as="targetPoint" />
          </mxGeometry>
        </mxCell>
        <mxCell id="z94i8-MBYvWFF0PzjlSv-121" value="" style="endArrow=classic;html=1;rounded=0;strokeColor=#000000;strokeWidth=3;fontFamily=Verdana;fontSize=14;" parent="1" edge="1">
          <mxGeometry width="50" height="50" relative="1" as="geometry">
            <mxPoint x="143" y="282" as="sourcePoint" />
            <mxPoint x="143" y="208" as="targetPoint" />
          </mxGeometry>
        </mxCell>
        <mxCell id="z94i8-MBYvWFF0PzjlSv-122" value="" style="endArrow=classic;html=1;rounded=0;strokeColor=#000000;strokeWidth=3;fontFamily=Verdana;fontSize=14;" parent="1" edge="1">
          <mxGeometry width="50" height="50" relative="1" as="geometry">
            <mxPoint x="220" y="282" as="sourcePoint" />
            <mxPoint x="220" y="208" as="targetPoint" />
          </mxGeometry>
        </mxCell>
        <mxCell id="z94i8-MBYvWFF0PzjlSv-123" value="" style="endArrow=classic;html=1;rounded=0;strokeColor=#000000;strokeWidth=3;fontFamily=Verdana;fontSize=14;" parent="1" edge="1">
          <mxGeometry width="50" height="50" relative="1" as="geometry">
            <mxPoint x="260" y="281" as="sourcePoint" />
            <mxPoint x="260" y="208" as="targetPoint" />
          </mxGeometry>
        </mxCell>
        <mxCell id="z94i8-MBYvWFF0PzjlSv-124" value="" style="endArrow=classic;html=1;rounded=0;strokeColor=#000000;strokeWidth=3;fontFamily=Verdana;fontSize=14;" parent="1" edge="1">
          <mxGeometry width="50" height="50" relative="1" as="geometry">
            <mxPoint x="299" y="282" as="sourcePoint" />
            <mxPoint x="299" y="208" as="targetPoint" />
          </mxGeometry>
        </mxCell>
        <mxCell id="z94i8-MBYvWFF0PzjlSv-125" value="" style="endArrow=classic;html=1;rounded=0;strokeColor=#000000;strokeWidth=3;fontFamily=Verdana;fontSize=14;" parent="1" edge="1">
          <mxGeometry width="50" height="50" relative="1" as="geometry">
            <mxPoint x="380" y="281" as="sourcePoint" />
            <mxPoint x="380" y="208" as="targetPoint" />
          </mxGeometry>
        </mxCell>
        <mxCell id="z94i8-MBYvWFF0PzjlSv-126" value="" style="endArrow=classic;html=1;rounded=0;strokeColor=#000000;strokeWidth=3;fontFamily=Verdana;fontSize=14;" parent="1" edge="1">
          <mxGeometry width="50" height="50" relative="1" as="geometry">
            <mxPoint x="419" y="282" as="sourcePoint" />
            <mxPoint x="419" y="208" as="targetPoint" />
          </mxGeometry>
        </mxCell>
        <mxCell id="z94i8-MBYvWFF0PzjlSv-127" value="" style="endArrow=classic;html=1;rounded=0;strokeColor=#000000;strokeWidth=3;fontFamily=Verdana;fontSize=14;" parent="1" edge="1">
          <mxGeometry width="50" height="50" relative="1" as="geometry">
            <mxPoint x="461" y="281" as="sourcePoint" />
            <mxPoint x="461" y="208" as="targetPoint" />
          </mxGeometry>
        </mxCell>
        <mxCell id="z94i8-MBYvWFF0PzjlSv-128" value="" style="endArrow=classic;html=1;rounded=0;strokeColor=#000000;strokeWidth=3;fontFamily=Verdana;fontSize=14;" parent="1" edge="1">
          <mxGeometry width="50" height="50" relative="1" as="geometry">
            <mxPoint x="540" y="282" as="sourcePoint" />
            <mxPoint x="539" y="207" as="targetPoint" />
          </mxGeometry>
        </mxCell>
        <mxCell id="z94i8-MBYvWFF0PzjlSv-129" value="" style="endArrow=classic;html=1;rounded=0;strokeColor=#000000;strokeWidth=3;fontFamily=Verdana;fontSize=14;" parent="1" edge="1">
          <mxGeometry width="50" height="50" relative="1" as="geometry">
            <mxPoint x="580" y="282" as="sourcePoint" />
            <mxPoint x="580" y="208" as="targetPoint" />
          </mxGeometry>
        </mxCell>
        <mxCell id="z94i8-MBYvWFF0PzjlSv-130" value="" style="endArrow=classic;html=1;rounded=0;strokeColor=#000000;strokeWidth=3;fontFamily=Verdana;fontSize=14;" parent="1" edge="1">
          <mxGeometry width="50" height="50" relative="1" as="geometry">
            <mxPoint x="660" y="282" as="sourcePoint" />
            <mxPoint x="659" y="207" as="targetPoint" />
          </mxGeometry>
        </mxCell>
        <mxCell id="z94i8-MBYvWFF0PzjlSv-131" value="" style="endArrow=classic;html=1;rounded=0;strokeColor=#000000;strokeWidth=3;fontFamily=Verdana;fontSize=14;" parent="1" edge="1">
          <mxGeometry width="50" height="50" relative="1" as="geometry">
            <mxPoint x="739" y="282" as="sourcePoint" />
            <mxPoint x="739" y="208" as="targetPoint" />
          </mxGeometry>
        </mxCell>
        <mxCell id="z94i8-MBYvWFF0PzjlSv-132" value="......" style="text;html=1;strokeColor=none;fillColor=none;align=center;verticalAlign=middle;whiteSpace=wrap;rounded=0;glass=0;fillStyle=auto;fontFamily=Verdana;fontSize=34;rotation=-90;" parent="1" vertex="1">
          <mxGeometry x="145" y="228" width="60" height="30" as="geometry" />
        </mxCell>
        <mxCell id="z94i8-MBYvWFF0PzjlSv-133" value="......" style="text;html=1;strokeColor=none;fillColor=none;align=center;verticalAlign=middle;whiteSpace=wrap;rounded=0;glass=0;fillStyle=auto;fontFamily=Verdana;fontSize=34;rotation=-90;" parent="1" vertex="1">
          <mxGeometry x="311" y="228" width="60" height="30" as="geometry" />
        </mxCell>
        <mxCell id="z94i8-MBYvWFF0PzjlSv-134" value="......" style="text;html=1;strokeColor=none;fillColor=none;align=center;verticalAlign=middle;whiteSpace=wrap;rounded=0;glass=0;fillStyle=auto;fontFamily=Verdana;fontSize=34;rotation=-90;" parent="1" vertex="1">
          <mxGeometry x="461" y="228" width="60" height="30" as="geometry" />
        </mxCell>
        <mxCell id="z94i8-MBYvWFF0PzjlSv-135" value="......" style="text;html=1;strokeColor=none;fillColor=none;align=center;verticalAlign=middle;whiteSpace=wrap;rounded=0;glass=0;fillStyle=auto;fontFamily=Verdana;fontSize=34;rotation=-90;" parent="1" vertex="1">
          <mxGeometry x="576" y="228" width="60" height="30" as="geometry" />
        </mxCell>
        <mxCell id="z94i8-MBYvWFF0PzjlSv-136" value="......" style="text;html=1;strokeColor=none;fillColor=none;align=center;verticalAlign=middle;whiteSpace=wrap;rounded=0;glass=0;fillStyle=auto;fontFamily=Verdana;fontSize=34;rotation=-90;" parent="1" vertex="1">
          <mxGeometry x="666" y="227" width="60" height="30" as="geometry" />
        </mxCell>
        <mxCell id="z94i8-MBYvWFF0PzjlSv-137" value="" style="rounded=0;whiteSpace=wrap;html=1;rotation=-90;" parent="1" vertex="1">
          <mxGeometry x="322" y="-27" width="40" height="40" as="geometry" />
        </mxCell>
        <mxCell id="z94i8-MBYvWFF0PzjlSv-154" value="" style="endArrow=classic;html=1;rounded=0;strokeColor=#000000;strokeWidth=3;fontFamily=Verdana;fontSize=14;" parent="1" edge="1">
          <mxGeometry width="50" height="50" relative="1" as="geometry">
            <mxPoint x="480" y="142" as="sourcePoint" />
            <mxPoint x="480" y="100" as="targetPoint" />
          </mxGeometry>
        </mxCell>
        <mxCell id="z94i8-MBYvWFF0PzjlSv-156" value="&lt;font style=&quot;font-size: 17px;&quot;&gt;预测的类别&lt;/font&gt;" style="text;html=1;strokeColor=none;fillColor=none;align=center;verticalAlign=middle;whiteSpace=wrap;rounded=0;glass=0;fillStyle=auto;fontFamily=Verdana;fontSize=17;rotation=0;" parent="1" vertex="1">
          <mxGeometry x="212" y="-22" width="119" height="30" as="geometry" />
        </mxCell>
        <mxCell id="z94i8-MBYvWFF0PzjlSv-160" value="" style="endArrow=classic;html=1;rounded=0;strokeColor=#000000;strokeWidth=3;fontFamily=Verdana;fontSize=17;entryX=0;entryY=0.5;entryDx=0;entryDy=0;" parent="1" edge="1">
          <mxGeometry width="50" height="50" relative="1" as="geometry">
            <mxPoint x="483" y="-27" as="sourcePoint" />
            <mxPoint x="482" y="-67" as="targetPoint" />
          </mxGeometry>
        </mxCell>
        <mxCell id="z94i8-MBYvWFF0PzjlSv-162" value="&lt;font style=&quot;font-size: 12px;&quot;&gt;SW1&lt;/font&gt;" style="rounded=0;whiteSpace=wrap;html=1;rotation=0;" parent="1" vertex="1">
          <mxGeometry x="79" y="561" width="40" height="40" as="geometry" />
        </mxCell>
        <mxCell id="z94i8-MBYvWFF0PzjlSv-163" value="&lt;font style=&quot;font-size: 12px;&quot;&gt;SW2&lt;/font&gt;" style="rounded=0;whiteSpace=wrap;html=1;rotation=0;" parent="1" vertex="1">
          <mxGeometry x="119" y="561" width="40" height="40" as="geometry" />
        </mxCell>
        <mxCell id="z94i8-MBYvWFF0PzjlSv-164" value="&lt;font style=&quot;font-size: 12px;&quot;&gt;......&lt;/font&gt;" style="rounded=0;whiteSpace=wrap;html=1;rotation=0;" parent="1" vertex="1">
          <mxGeometry x="159" y="561" width="40" height="40" as="geometry" />
        </mxCell>
        <mxCell id="z94i8-MBYvWFF0PzjlSv-165" value="&lt;font style=&quot;font-size: 12px;&quot;&gt;SWn&lt;/font&gt;" style="rounded=0;whiteSpace=wrap;html=1;rotation=0;" parent="1" vertex="1">
          <mxGeometry x="199" y="561" width="40" height="40" as="geometry" />
        </mxCell>
        <mxCell id="z94i8-MBYvWFF0PzjlSv-166" value="&lt;font style=&quot;font-size: 12px;&quot;&gt;SEP&lt;/font&gt;" style="rounded=0;whiteSpace=wrap;html=1;rotation=0;" parent="1" vertex="1">
          <mxGeometry x="239" y="561" width="40" height="40" as="geometry" />
        </mxCell>
        <mxCell id="z94i8-MBYvWFF0PzjlSv-167" value="&lt;font style=&quot;font-size: 12px;&quot;&gt;C1W1&lt;/font&gt;" style="rounded=0;whiteSpace=wrap;html=1;rotation=0;" parent="1" vertex="1">
          <mxGeometry x="279" y="561" width="40" height="40" as="geometry" />
        </mxCell>
        <mxCell id="z94i8-MBYvWFF0PzjlSv-168" value="......" style="rounded=0;whiteSpace=wrap;html=1;rotation=0;" parent="1" vertex="1">
          <mxGeometry x="319" y="561" width="40" height="40" as="geometry" />
        </mxCell>
        <mxCell id="z94i8-MBYvWFF0PzjlSv-169" value="&lt;font style=&quot;font-size: 12px;&quot;&gt;C1Wn&lt;/font&gt;" style="rounded=0;whiteSpace=wrap;html=1;rotation=0;" parent="1" vertex="1">
          <mxGeometry x="359" y="561" width="40" height="40" as="geometry" />
        </mxCell>
        <mxCell id="z94i8-MBYvWFF0PzjlSv-170" value="&lt;font style=&quot;font-size: 12px;&quot;&gt;SEP&lt;/font&gt;" style="rounded=0;whiteSpace=wrap;html=1;rotation=0;" parent="1" vertex="1">
          <mxGeometry x="399" y="561" width="40" height="40" as="geometry" />
        </mxCell>
        <mxCell id="z94i8-MBYvWFF0PzjlSv-171" value="&lt;font style=&quot;font-size: 12px;&quot;&gt;C2W1&lt;/font&gt;" style="rounded=0;whiteSpace=wrap;html=1;rotation=0;" parent="1" vertex="1">
          <mxGeometry x="439" y="561" width="40" height="40" as="geometry" />
        </mxCell>
        <mxCell id="z94i8-MBYvWFF0PzjlSv-172" value="&lt;font style=&quot;font-size: 12px;&quot;&gt;......&lt;/font&gt;" style="rounded=0;whiteSpace=wrap;html=1;rotation=0;" parent="1" vertex="1">
          <mxGeometry x="479" y="561" width="40" height="40" as="geometry" />
        </mxCell>
        <mxCell id="z94i8-MBYvWFF0PzjlSv-173" value="&lt;font style=&quot;font-size: 12px;&quot;&gt;C2Wn&lt;/font&gt;" style="rounded=0;whiteSpace=wrap;html=1;rotation=0;" parent="1" vertex="1">
          <mxGeometry x="519" y="561" width="40" height="40" as="geometry" />
        </mxCell>
        <mxCell id="z94i8-MBYvWFF0PzjlSv-174" value="SEP" style="rounded=0;whiteSpace=wrap;html=1;rotation=0;" parent="1" vertex="1">
          <mxGeometry x="559" y="561" width="40" height="40" as="geometry" />
        </mxCell>
        <mxCell id="z94i8-MBYvWFF0PzjlSv-175" value="&lt;font style=&quot;font-size: 12px;&quot;&gt;......&lt;/font&gt;" style="rounded=0;whiteSpace=wrap;html=1;rotation=0;" parent="1" vertex="1">
          <mxGeometry x="599" y="561" width="40" height="40" as="geometry" />
        </mxCell>
        <mxCell id="z94i8-MBYvWFF0PzjlSv-176" value="CnW1" style="rounded=0;whiteSpace=wrap;html=1;rotation=0;" parent="1" vertex="1">
          <mxGeometry x="639" y="561" width="40" height="40" as="geometry" />
        </mxCell>
        <mxCell id="z94i8-MBYvWFF0PzjlSv-177" value="......" style="rounded=0;whiteSpace=wrap;html=1;rotation=0;" parent="1" vertex="1">
          <mxGeometry x="679" y="561" width="40" height="40" as="geometry" />
        </mxCell>
        <mxCell id="z94i8-MBYvWFF0PzjlSv-178" value="&lt;font style=&quot;font-size: 12px;&quot;&gt;CnWm&lt;/font&gt;" style="rounded=0;whiteSpace=wrap;html=1;rotation=0;" parent="1" vertex="1">
          <mxGeometry x="719" y="561" width="40" height="40" as="geometry" />
        </mxCell>
        <mxCell id="z94i8-MBYvWFF0PzjlSv-203" value="" style="group" parent="1" vertex="1" connectable="0">
          <mxGeometry x="780" y="641" width="120" height="38" as="geometry" />
        </mxCell>
        <mxCell id="z94i8-MBYvWFF0PzjlSv-194" value="" style="group" parent="z94i8-MBYvWFF0PzjlSv-203" vertex="1" connectable="0">
          <mxGeometry y="19" width="120" height="19" as="geometry" />
        </mxCell>
        <mxCell id="z94i8-MBYvWFF0PzjlSv-188" value="" style="group" parent="z94i8-MBYvWFF0PzjlSv-194" vertex="1" connectable="0">
          <mxGeometry width="80" height="19" as="geometry" />
        </mxCell>
        <mxCell id="z94i8-MBYvWFF0PzjlSv-184" value="" style="rounded=0;whiteSpace=wrap;html=1;glass=0;fillStyle=auto;fontFamily=Verdana;fontSize=17;" parent="z94i8-MBYvWFF0PzjlSv-188" vertex="1">
          <mxGeometry width="20" height="19" as="geometry" />
        </mxCell>
        <mxCell id="z94i8-MBYvWFF0PzjlSv-185" value="" style="rounded=0;whiteSpace=wrap;html=1;glass=0;fillStyle=auto;fontFamily=Verdana;fontSize=17;" parent="z94i8-MBYvWFF0PzjlSv-188" vertex="1">
          <mxGeometry x="20" width="20" height="19" as="geometry" />
        </mxCell>
        <mxCell id="z94i8-MBYvWFF0PzjlSv-186" value="" style="rounded=0;whiteSpace=wrap;html=1;glass=0;fillStyle=auto;fontFamily=Verdana;fontSize=17;" parent="z94i8-MBYvWFF0PzjlSv-188" vertex="1">
          <mxGeometry x="60" width="20" height="19" as="geometry" />
        </mxCell>
        <mxCell id="z94i8-MBYvWFF0PzjlSv-187" value="" style="rounded=0;whiteSpace=wrap;html=1;glass=0;fillStyle=auto;fontFamily=Verdana;fontSize=17;" parent="z94i8-MBYvWFF0PzjlSv-188" vertex="1">
          <mxGeometry x="40" width="20" height="19" as="geometry" />
        </mxCell>
        <mxCell id="z94i8-MBYvWFF0PzjlSv-190" value="" style="rounded=0;whiteSpace=wrap;html=1;glass=0;fillStyle=auto;fontFamily=Verdana;fontSize=17;" parent="z94i8-MBYvWFF0PzjlSv-194" vertex="1">
          <mxGeometry x="80" width="20" height="19" as="geometry" />
        </mxCell>
        <mxCell id="z94i8-MBYvWFF0PzjlSv-191" value="" style="rounded=0;whiteSpace=wrap;html=1;glass=0;fillStyle=auto;fontFamily=Verdana;fontSize=17;" parent="z94i8-MBYvWFF0PzjlSv-194" vertex="1">
          <mxGeometry x="100" width="20" height="19" as="geometry" />
        </mxCell>
        <mxCell id="z94i8-MBYvWFF0PzjlSv-195" value="" style="group" parent="z94i8-MBYvWFF0PzjlSv-203" vertex="1" connectable="0">
          <mxGeometry width="120" height="19" as="geometry" />
        </mxCell>
        <mxCell id="z94i8-MBYvWFF0PzjlSv-196" value="" style="group" parent="z94i8-MBYvWFF0PzjlSv-195" vertex="1" connectable="0">
          <mxGeometry width="80" height="19" as="geometry" />
        </mxCell>
        <mxCell id="z94i8-MBYvWFF0PzjlSv-197" value="" style="rounded=0;whiteSpace=wrap;html=1;glass=0;fillStyle=auto;fontFamily=Verdana;fontSize=17;" parent="z94i8-MBYvWFF0PzjlSv-196" vertex="1">
          <mxGeometry width="20" height="19" as="geometry" />
        </mxCell>
        <mxCell id="z94i8-MBYvWFF0PzjlSv-198" value="" style="rounded=0;whiteSpace=wrap;html=1;glass=0;fillStyle=auto;fontFamily=Verdana;fontSize=17;" parent="z94i8-MBYvWFF0PzjlSv-196" vertex="1">
          <mxGeometry x="20" width="20" height="19" as="geometry" />
        </mxCell>
        <mxCell id="z94i8-MBYvWFF0PzjlSv-199" value="" style="rounded=0;whiteSpace=wrap;html=1;glass=0;fillStyle=auto;fontFamily=Verdana;fontSize=17;" parent="z94i8-MBYvWFF0PzjlSv-196" vertex="1">
          <mxGeometry x="60" width="20" height="19" as="geometry" />
        </mxCell>
        <mxCell id="z94i8-MBYvWFF0PzjlSv-200" value="" style="rounded=0;whiteSpace=wrap;html=1;glass=0;fillStyle=auto;fontFamily=Verdana;fontSize=17;" parent="z94i8-MBYvWFF0PzjlSv-196" vertex="1">
          <mxGeometry x="40" width="20" height="19" as="geometry" />
        </mxCell>
        <mxCell id="z94i8-MBYvWFF0PzjlSv-201" value="" style="rounded=0;whiteSpace=wrap;html=1;glass=0;fillStyle=auto;fontFamily=Verdana;fontSize=17;" parent="z94i8-MBYvWFF0PzjlSv-195" vertex="1">
          <mxGeometry x="80" width="20" height="19" as="geometry" />
        </mxCell>
        <mxCell id="z94i8-MBYvWFF0PzjlSv-202" value="" style="rounded=0;whiteSpace=wrap;html=1;glass=0;fillStyle=auto;fontFamily=Verdana;fontSize=17;" parent="z94i8-MBYvWFF0PzjlSv-195" vertex="1">
          <mxGeometry x="100" width="20" height="19" as="geometry" />
        </mxCell>
        <mxCell id="z94i8-MBYvWFF0PzjlSv-204" value="" style="group" parent="1" vertex="1" connectable="0">
          <mxGeometry x="780" y="603" width="120" height="38" as="geometry" />
        </mxCell>
        <mxCell id="z94i8-MBYvWFF0PzjlSv-205" value="" style="group" parent="z94i8-MBYvWFF0PzjlSv-204" vertex="1" connectable="0">
          <mxGeometry y="19" width="120" height="19" as="geometry" />
        </mxCell>
        <mxCell id="z94i8-MBYvWFF0PzjlSv-206" value="" style="group" parent="z94i8-MBYvWFF0PzjlSv-205" vertex="1" connectable="0">
          <mxGeometry width="80" height="19" as="geometry" />
        </mxCell>
        <mxCell id="z94i8-MBYvWFF0PzjlSv-207" value="" style="rounded=0;whiteSpace=wrap;html=1;glass=0;fillStyle=auto;fontFamily=Verdana;fontSize=17;" parent="z94i8-MBYvWFF0PzjlSv-206" vertex="1">
          <mxGeometry width="20" height="19" as="geometry" />
        </mxCell>
        <mxCell id="z94i8-MBYvWFF0PzjlSv-208" value="" style="rounded=0;whiteSpace=wrap;html=1;glass=0;fillStyle=auto;fontFamily=Verdana;fontSize=17;" parent="z94i8-MBYvWFF0PzjlSv-206" vertex="1">
          <mxGeometry x="20" width="20" height="19" as="geometry" />
        </mxCell>
        <mxCell id="z94i8-MBYvWFF0PzjlSv-209" value="" style="rounded=0;whiteSpace=wrap;html=1;glass=0;fillStyle=auto;fontFamily=Verdana;fontSize=17;" parent="z94i8-MBYvWFF0PzjlSv-206" vertex="1">
          <mxGeometry x="60" width="20" height="19" as="geometry" />
        </mxCell>
        <mxCell id="z94i8-MBYvWFF0PzjlSv-210" value="" style="rounded=0;whiteSpace=wrap;html=1;glass=0;fillStyle=auto;fontFamily=Verdana;fontSize=17;" parent="z94i8-MBYvWFF0PzjlSv-206" vertex="1">
          <mxGeometry x="40" width="20" height="19" as="geometry" />
        </mxCell>
        <mxCell id="z94i8-MBYvWFF0PzjlSv-211" value="" style="rounded=0;whiteSpace=wrap;html=1;glass=0;fillStyle=auto;fontFamily=Verdana;fontSize=17;" parent="z94i8-MBYvWFF0PzjlSv-205" vertex="1">
          <mxGeometry x="80" width="20" height="19" as="geometry" />
        </mxCell>
        <mxCell id="z94i8-MBYvWFF0PzjlSv-212" value="" style="rounded=0;whiteSpace=wrap;html=1;glass=0;fillStyle=auto;fontFamily=Verdana;fontSize=17;" parent="z94i8-MBYvWFF0PzjlSv-205" vertex="1">
          <mxGeometry x="100" width="20" height="19" as="geometry" />
        </mxCell>
        <mxCell id="z94i8-MBYvWFF0PzjlSv-213" value="" style="group" parent="z94i8-MBYvWFF0PzjlSv-204" vertex="1" connectable="0">
          <mxGeometry width="120" height="19" as="geometry" />
        </mxCell>
        <mxCell id="z94i8-MBYvWFF0PzjlSv-214" value="" style="group" parent="z94i8-MBYvWFF0PzjlSv-213" vertex="1" connectable="0">
          <mxGeometry width="80" height="19" as="geometry" />
        </mxCell>
        <mxCell id="z94i8-MBYvWFF0PzjlSv-215" value="" style="rounded=0;whiteSpace=wrap;html=1;glass=0;fillStyle=auto;fontFamily=Verdana;fontSize=17;" parent="z94i8-MBYvWFF0PzjlSv-214" vertex="1">
          <mxGeometry width="20" height="19" as="geometry" />
        </mxCell>
        <mxCell id="z94i8-MBYvWFF0PzjlSv-216" value="" style="rounded=0;whiteSpace=wrap;html=1;glass=0;fillStyle=auto;fontFamily=Verdana;fontSize=17;" parent="z94i8-MBYvWFF0PzjlSv-214" vertex="1">
          <mxGeometry x="20" width="20" height="19" as="geometry" />
        </mxCell>
        <mxCell id="z94i8-MBYvWFF0PzjlSv-217" value="" style="rounded=0;whiteSpace=wrap;html=1;glass=0;fillStyle=auto;fontFamily=Verdana;fontSize=17;" parent="z94i8-MBYvWFF0PzjlSv-214" vertex="1">
          <mxGeometry x="60" width="20" height="19" as="geometry" />
        </mxCell>
        <mxCell id="z94i8-MBYvWFF0PzjlSv-218" value="" style="rounded=0;whiteSpace=wrap;html=1;glass=0;fillStyle=auto;fontFamily=Verdana;fontSize=17;" parent="z94i8-MBYvWFF0PzjlSv-214" vertex="1">
          <mxGeometry x="40" width="20" height="19" as="geometry" />
        </mxCell>
        <mxCell id="z94i8-MBYvWFF0PzjlSv-219" value="" style="rounded=0;whiteSpace=wrap;html=1;glass=0;fillStyle=auto;fontFamily=Verdana;fontSize=17;" parent="z94i8-MBYvWFF0PzjlSv-213" vertex="1">
          <mxGeometry x="80" width="20" height="19" as="geometry" />
        </mxCell>
        <mxCell id="z94i8-MBYvWFF0PzjlSv-220" value="" style="rounded=0;whiteSpace=wrap;html=1;glass=0;fillStyle=auto;fontFamily=Verdana;fontSize=17;" parent="z94i8-MBYvWFF0PzjlSv-213" vertex="1">
          <mxGeometry x="100" width="20" height="19" as="geometry" />
        </mxCell>
        <mxCell id="z94i8-MBYvWFF0PzjlSv-221" value="" style="group" parent="1" vertex="1" connectable="0">
          <mxGeometry x="780" y="565" width="120" height="38" as="geometry" />
        </mxCell>
        <mxCell id="z94i8-MBYvWFF0PzjlSv-222" value="" style="group" parent="z94i8-MBYvWFF0PzjlSv-221" vertex="1" connectable="0">
          <mxGeometry y="19" width="120" height="19" as="geometry" />
        </mxCell>
        <mxCell id="z94i8-MBYvWFF0PzjlSv-223" value="" style="group" parent="z94i8-MBYvWFF0PzjlSv-222" vertex="1" connectable="0">
          <mxGeometry width="80" height="19" as="geometry" />
        </mxCell>
        <mxCell id="z94i8-MBYvWFF0PzjlSv-224" value="" style="rounded=0;whiteSpace=wrap;html=1;glass=0;fillStyle=auto;fontFamily=Verdana;fontSize=17;" parent="z94i8-MBYvWFF0PzjlSv-223" vertex="1">
          <mxGeometry width="20" height="19" as="geometry" />
        </mxCell>
        <mxCell id="z94i8-MBYvWFF0PzjlSv-225" value="" style="rounded=0;whiteSpace=wrap;html=1;glass=0;fillStyle=auto;fontFamily=Verdana;fontSize=17;" parent="z94i8-MBYvWFF0PzjlSv-223" vertex="1">
          <mxGeometry x="20" width="20" height="19" as="geometry" />
        </mxCell>
        <mxCell id="z94i8-MBYvWFF0PzjlSv-226" value="" style="rounded=0;whiteSpace=wrap;html=1;glass=0;fillStyle=auto;fontFamily=Verdana;fontSize=17;" parent="z94i8-MBYvWFF0PzjlSv-223" vertex="1">
          <mxGeometry x="60" width="20" height="19" as="geometry" />
        </mxCell>
        <mxCell id="z94i8-MBYvWFF0PzjlSv-227" value="" style="rounded=0;whiteSpace=wrap;html=1;glass=0;fillStyle=auto;fontFamily=Verdana;fontSize=17;" parent="z94i8-MBYvWFF0PzjlSv-223" vertex="1">
          <mxGeometry x="40" width="20" height="19" as="geometry" />
        </mxCell>
        <mxCell id="z94i8-MBYvWFF0PzjlSv-228" value="" style="rounded=0;whiteSpace=wrap;html=1;glass=0;fillStyle=auto;fontFamily=Verdana;fontSize=17;" parent="z94i8-MBYvWFF0PzjlSv-222" vertex="1">
          <mxGeometry x="80" width="20" height="19" as="geometry" />
        </mxCell>
        <mxCell id="z94i8-MBYvWFF0PzjlSv-229" value="" style="rounded=0;whiteSpace=wrap;html=1;glass=0;fillStyle=auto;fontFamily=Verdana;fontSize=17;" parent="z94i8-MBYvWFF0PzjlSv-222" vertex="1">
          <mxGeometry x="100" width="20" height="19" as="geometry" />
        </mxCell>
        <mxCell id="z94i8-MBYvWFF0PzjlSv-230" value="" style="group" parent="z94i8-MBYvWFF0PzjlSv-221" vertex="1" connectable="0">
          <mxGeometry width="120" height="19" as="geometry" />
        </mxCell>
        <mxCell id="z94i8-MBYvWFF0PzjlSv-231" value="" style="group" parent="z94i8-MBYvWFF0PzjlSv-230" vertex="1" connectable="0">
          <mxGeometry width="80" height="19" as="geometry" />
        </mxCell>
        <mxCell id="z94i8-MBYvWFF0PzjlSv-232" value="" style="rounded=0;whiteSpace=wrap;html=1;glass=0;fillStyle=auto;fontFamily=Verdana;fontSize=17;" parent="z94i8-MBYvWFF0PzjlSv-231" vertex="1">
          <mxGeometry width="20" height="19" as="geometry" />
        </mxCell>
        <mxCell id="z94i8-MBYvWFF0PzjlSv-233" value="" style="rounded=0;whiteSpace=wrap;html=1;glass=0;fillStyle=auto;fontFamily=Verdana;fontSize=17;" parent="z94i8-MBYvWFF0PzjlSv-231" vertex="1">
          <mxGeometry x="20" width="20" height="19" as="geometry" />
        </mxCell>
        <mxCell id="z94i8-MBYvWFF0PzjlSv-234" value="" style="rounded=0;whiteSpace=wrap;html=1;glass=0;fillStyle=auto;fontFamily=Verdana;fontSize=17;" parent="z94i8-MBYvWFF0PzjlSv-231" vertex="1">
          <mxGeometry x="60" width="20" height="19" as="geometry" />
        </mxCell>
        <mxCell id="z94i8-MBYvWFF0PzjlSv-235" value="" style="rounded=0;whiteSpace=wrap;html=1;glass=0;fillStyle=auto;fontFamily=Verdana;fontSize=17;" parent="z94i8-MBYvWFF0PzjlSv-231" vertex="1">
          <mxGeometry x="40" width="20" height="19" as="geometry" />
        </mxCell>
        <mxCell id="z94i8-MBYvWFF0PzjlSv-236" value="" style="rounded=0;whiteSpace=wrap;html=1;glass=0;fillStyle=auto;fontFamily=Verdana;fontSize=17;" parent="z94i8-MBYvWFF0PzjlSv-230" vertex="1">
          <mxGeometry x="80" width="20" height="19" as="geometry" />
        </mxCell>
        <mxCell id="z94i8-MBYvWFF0PzjlSv-237" value="" style="rounded=0;whiteSpace=wrap;html=1;glass=0;fillStyle=auto;fontFamily=Verdana;fontSize=17;" parent="z94i8-MBYvWFF0PzjlSv-230" vertex="1">
          <mxGeometry x="100" width="20" height="19" as="geometry" />
        </mxCell>
        <mxCell id="z94i8-MBYvWFF0PzjlSv-238" value="" style="rounded=0;whiteSpace=wrap;html=1;rotation=-90;" parent="1" vertex="1">
          <mxGeometry x="362" y="-27" width="40" height="40" as="geometry" />
        </mxCell>
        <mxCell id="z94i8-MBYvWFF0PzjlSv-239" value="" style="rounded=0;whiteSpace=wrap;html=1;rotation=-90;" parent="1" vertex="1">
          <mxGeometry x="402" y="-27" width="40" height="40" as="geometry" />
        </mxCell>
        <mxCell id="z94i8-MBYvWFF0PzjlSv-240" value="" style="rounded=0;whiteSpace=wrap;html=1;rotation=-90;" parent="1" vertex="1">
          <mxGeometry x="442" y="-27" width="40" height="40" as="geometry" />
        </mxCell>
        <mxCell id="z94i8-MBYvWFF0PzjlSv-242" value="&lt;font style=&quot;font-size: 25px;&quot;&gt;......&lt;/font&gt;" style="rounded=0;whiteSpace=wrap;html=1;rotation=0;" parent="1" vertex="1">
          <mxGeometry x="482" y="-27" width="119" height="40" as="geometry" />
        </mxCell>
        <mxCell id="z94i8-MBYvWFF0PzjlSv-243" value="" style="rounded=0;whiteSpace=wrap;html=1;rotation=-90;" parent="1" vertex="1">
          <mxGeometry x="601" y="-27" width="40" height="40" as="geometry" />
        </mxCell>
        <mxCell id="z94i8-MBYvWFF0PzjlSv-244" value="Loss" style="rounded=0;whiteSpace=wrap;html=1;glass=0;fillStyle=auto;fontFamily=Verdana;fontSize=25;fillColor=#eeeeee;strokeColor=#36393d;" parent="1" vertex="1">
          <mxGeometry x="402" y="-107" width="160" height="40" as="geometry" />
        </mxCell>
        <mxCell id="ozSnwrf6JVXW-IfmkyOd-31" value="" style="shape=table;html=1;whiteSpace=wrap;startSize=0;container=1;collapsible=0;childLayout=tableLayout;glass=0;fillStyle=auto;fontFamily=Verdana;fontSize=25;" vertex="1" parent="1">
          <mxGeometry x="480" y="960" width="592" height="584" as="geometry" />
        </mxCell>
        <mxCell id="ozSnwrf6JVXW-IfmkyOd-167" style="shape=tableRow;horizontal=0;startSize=0;swimlaneHead=0;swimlaneBody=0;top=0;left=0;bottom=0;right=0;collapsible=0;dropTarget=0;fillColor=none;points=[[0,0.5],[1,0.5]];portConstraint=eastwest;glass=0;fillStyle=auto;fontFamily=Verdana;fontSize=25;" vertex="1" parent="ozSnwrf6JVXW-IfmkyOd-31">
          <mxGeometry width="592" height="53" as="geometry" />
        </mxCell>
        <mxCell id="ozSnwrf6JVXW-IfmkyOd-168" style="shape=partialRectangle;html=1;whiteSpace=wrap;connectable=0;fillColor=none;top=0;left=0;bottom=0;right=0;overflow=hidden;glass=0;fillStyle=auto;fontFamily=Verdana;fontSize=25;" vertex="1" parent="ozSnwrf6JVXW-IfmkyOd-167">
          <mxGeometry width="54" height="53" as="geometry">
            <mxRectangle width="54" height="53" as="alternateBounds" />
          </mxGeometry>
        </mxCell>
        <mxCell id="ozSnwrf6JVXW-IfmkyOd-169" style="shape=partialRectangle;html=1;whiteSpace=wrap;connectable=0;fillColor=none;top=0;left=0;bottom=0;right=0;overflow=hidden;glass=0;fillStyle=auto;fontFamily=Verdana;fontSize=25;" vertex="1" parent="ozSnwrf6JVXW-IfmkyOd-167">
          <mxGeometry x="54" width="53" height="53" as="geometry">
            <mxRectangle width="53" height="53" as="alternateBounds" />
          </mxGeometry>
        </mxCell>
        <mxCell id="ozSnwrf6JVXW-IfmkyOd-170" style="shape=partialRectangle;html=1;whiteSpace=wrap;connectable=0;fillColor=none;top=0;left=0;bottom=0;right=0;overflow=hidden;glass=0;fillStyle=auto;fontFamily=Verdana;fontSize=25;" vertex="1" parent="ozSnwrf6JVXW-IfmkyOd-167">
          <mxGeometry x="107" width="54" height="53" as="geometry">
            <mxRectangle width="54" height="53" as="alternateBounds" />
          </mxGeometry>
        </mxCell>
        <mxCell id="ozSnwrf6JVXW-IfmkyOd-171" style="shape=partialRectangle;html=1;whiteSpace=wrap;connectable=0;fillColor=none;top=0;left=0;bottom=0;right=0;overflow=hidden;glass=0;fillStyle=auto;fontFamily=Verdana;fontSize=25;" vertex="1" parent="ozSnwrf6JVXW-IfmkyOd-167">
          <mxGeometry x="161" width="53" height="53" as="geometry">
            <mxRectangle width="53" height="53" as="alternateBounds" />
          </mxGeometry>
        </mxCell>
        <mxCell id="ozSnwrf6JVXW-IfmkyOd-172" style="shape=partialRectangle;html=1;whiteSpace=wrap;connectable=0;fillColor=none;top=0;left=0;bottom=0;right=0;overflow=hidden;glass=0;fillStyle=auto;fontFamily=Verdana;fontSize=25;" vertex="1" parent="ozSnwrf6JVXW-IfmkyOd-167">
          <mxGeometry x="214" width="54" height="53" as="geometry">
            <mxRectangle width="54" height="53" as="alternateBounds" />
          </mxGeometry>
        </mxCell>
        <mxCell id="ozSnwrf6JVXW-IfmkyOd-173" style="shape=partialRectangle;html=1;whiteSpace=wrap;connectable=0;fillColor=none;top=0;left=0;bottom=0;right=0;overflow=hidden;glass=0;fillStyle=auto;fontFamily=Verdana;fontSize=25;" vertex="1" parent="ozSnwrf6JVXW-IfmkyOd-167">
          <mxGeometry x="268" width="54" height="53" as="geometry">
            <mxRectangle width="54" height="53" as="alternateBounds" />
          </mxGeometry>
        </mxCell>
        <mxCell id="ozSnwrf6JVXW-IfmkyOd-174" style="shape=partialRectangle;html=1;whiteSpace=wrap;connectable=0;fillColor=none;top=0;left=0;bottom=0;right=0;overflow=hidden;glass=0;fillStyle=auto;fontFamily=Verdana;fontSize=25;" vertex="1" parent="ozSnwrf6JVXW-IfmkyOd-167">
          <mxGeometry x="322" width="54" height="53" as="geometry">
            <mxRectangle width="54" height="53" as="alternateBounds" />
          </mxGeometry>
        </mxCell>
        <mxCell id="ozSnwrf6JVXW-IfmkyOd-175" style="shape=partialRectangle;html=1;whiteSpace=wrap;connectable=0;fillColor=none;top=0;left=0;bottom=0;right=0;overflow=hidden;glass=0;fillStyle=auto;fontFamily=Verdana;fontSize=25;" vertex="1" parent="ozSnwrf6JVXW-IfmkyOd-167">
          <mxGeometry x="376" width="54" height="53" as="geometry">
            <mxRectangle width="54" height="53" as="alternateBounds" />
          </mxGeometry>
        </mxCell>
        <mxCell id="ozSnwrf6JVXW-IfmkyOd-176" style="shape=partialRectangle;html=1;whiteSpace=wrap;connectable=0;fillColor=none;top=0;left=0;bottom=0;right=0;overflow=hidden;glass=0;fillStyle=auto;fontFamily=Verdana;fontSize=25;" vertex="1" parent="ozSnwrf6JVXW-IfmkyOd-167">
          <mxGeometry x="430" width="54" height="53" as="geometry">
            <mxRectangle width="54" height="53" as="alternateBounds" />
          </mxGeometry>
        </mxCell>
        <mxCell id="ozSnwrf6JVXW-IfmkyOd-177" style="shape=partialRectangle;html=1;whiteSpace=wrap;connectable=0;fillColor=none;top=0;left=0;bottom=0;right=0;overflow=hidden;glass=0;fillStyle=auto;fontFamily=Verdana;fontSize=25;" vertex="1" parent="ozSnwrf6JVXW-IfmkyOd-167">
          <mxGeometry x="484" width="54" height="53" as="geometry">
            <mxRectangle width="54" height="53" as="alternateBounds" />
          </mxGeometry>
        </mxCell>
        <mxCell id="ozSnwrf6JVXW-IfmkyOd-178" style="shape=partialRectangle;html=1;whiteSpace=wrap;connectable=0;fillColor=none;top=0;left=0;bottom=0;right=0;overflow=hidden;glass=0;fillStyle=auto;fontFamily=Verdana;fontSize=25;" vertex="1" parent="ozSnwrf6JVXW-IfmkyOd-167">
          <mxGeometry x="538" width="54" height="53" as="geometry">
            <mxRectangle width="54" height="53" as="alternateBounds" />
          </mxGeometry>
        </mxCell>
        <mxCell id="ozSnwrf6JVXW-IfmkyOd-32" value="" style="shape=tableRow;horizontal=0;startSize=0;swimlaneHead=0;swimlaneBody=0;top=0;left=0;bottom=0;right=0;collapsible=0;dropTarget=0;fillColor=none;points=[[0,0.5],[1,0.5]];portConstraint=eastwest;glass=0;fillStyle=auto;fontFamily=Verdana;fontSize=25;" vertex="1" parent="ozSnwrf6JVXW-IfmkyOd-31">
          <mxGeometry y="53" width="592" height="53" as="geometry" />
        </mxCell>
        <mxCell id="ozSnwrf6JVXW-IfmkyOd-56" style="shape=partialRectangle;html=1;whiteSpace=wrap;connectable=0;fillColor=none;top=0;left=0;bottom=0;right=0;overflow=hidden;glass=0;fillStyle=auto;fontFamily=Verdana;fontSize=25;" vertex="1" parent="ozSnwrf6JVXW-IfmkyOd-32">
          <mxGeometry width="54" height="53" as="geometry">
            <mxRectangle width="54" height="53" as="alternateBounds" />
          </mxGeometry>
        </mxCell>
        <mxCell id="ozSnwrf6JVXW-IfmkyOd-53" style="shape=partialRectangle;html=1;whiteSpace=wrap;connectable=0;fillColor=none;top=0;left=0;bottom=0;right=0;overflow=hidden;glass=0;fillStyle=auto;fontFamily=Verdana;fontSize=25;" vertex="1" parent="ozSnwrf6JVXW-IfmkyOd-32">
          <mxGeometry x="54" width="53" height="53" as="geometry">
            <mxRectangle width="53" height="53" as="alternateBounds" />
          </mxGeometry>
        </mxCell>
        <mxCell id="ozSnwrf6JVXW-IfmkyOd-50" style="shape=partialRectangle;html=1;whiteSpace=wrap;connectable=0;fillColor=none;top=0;left=0;bottom=0;right=0;overflow=hidden;glass=0;fillStyle=auto;fontFamily=Verdana;fontSize=25;" vertex="1" parent="ozSnwrf6JVXW-IfmkyOd-32">
          <mxGeometry x="107" width="54" height="53" as="geometry">
            <mxRectangle width="54" height="53" as="alternateBounds" />
          </mxGeometry>
        </mxCell>
        <mxCell id="ozSnwrf6JVXW-IfmkyOd-47" style="shape=partialRectangle;html=1;whiteSpace=wrap;connectable=0;fillColor=none;top=0;left=0;bottom=0;right=0;overflow=hidden;glass=0;fillStyle=auto;fontFamily=Verdana;fontSize=25;" vertex="1" parent="ozSnwrf6JVXW-IfmkyOd-32">
          <mxGeometry x="161" width="53" height="53" as="geometry">
            <mxRectangle width="53" height="53" as="alternateBounds" />
          </mxGeometry>
        </mxCell>
        <mxCell id="ozSnwrf6JVXW-IfmkyOd-44" style="shape=partialRectangle;html=1;whiteSpace=wrap;connectable=0;fillColor=none;top=0;left=0;bottom=0;right=0;overflow=hidden;glass=0;fillStyle=auto;fontFamily=Verdana;fontSize=25;" vertex="1" parent="ozSnwrf6JVXW-IfmkyOd-32">
          <mxGeometry x="214" width="54" height="53" as="geometry">
            <mxRectangle width="54" height="53" as="alternateBounds" />
          </mxGeometry>
        </mxCell>
        <mxCell id="ozSnwrf6JVXW-IfmkyOd-33" value="" style="shape=partialRectangle;html=1;whiteSpace=wrap;connectable=0;fillColor=none;top=0;left=0;bottom=0;right=0;overflow=hidden;glass=0;fillStyle=auto;fontFamily=Verdana;fontSize=25;" vertex="1" parent="ozSnwrf6JVXW-IfmkyOd-32">
          <mxGeometry x="268" width="54" height="53" as="geometry">
            <mxRectangle width="54" height="53" as="alternateBounds" />
          </mxGeometry>
        </mxCell>
        <mxCell id="ozSnwrf6JVXW-IfmkyOd-34" value="" style="shape=partialRectangle;html=1;whiteSpace=wrap;connectable=0;fillColor=none;top=0;left=0;bottom=0;right=0;overflow=hidden;glass=0;fillStyle=auto;fontFamily=Verdana;fontSize=25;" vertex="1" parent="ozSnwrf6JVXW-IfmkyOd-32">
          <mxGeometry x="322" width="54" height="53" as="geometry">
            <mxRectangle width="54" height="53" as="alternateBounds" />
          </mxGeometry>
        </mxCell>
        <mxCell id="ozSnwrf6JVXW-IfmkyOd-35" value="" style="shape=partialRectangle;html=1;whiteSpace=wrap;connectable=0;fillColor=none;top=0;left=0;bottom=0;right=0;overflow=hidden;glass=0;fillStyle=auto;fontFamily=Verdana;fontSize=25;" vertex="1" parent="ozSnwrf6JVXW-IfmkyOd-32">
          <mxGeometry x="376" width="54" height="53" as="geometry">
            <mxRectangle width="54" height="53" as="alternateBounds" />
          </mxGeometry>
        </mxCell>
        <mxCell id="ozSnwrf6JVXW-IfmkyOd-66" style="shape=partialRectangle;html=1;whiteSpace=wrap;connectable=0;fillColor=none;top=0;left=0;bottom=0;right=0;overflow=hidden;glass=0;fillStyle=auto;fontFamily=Verdana;fontSize=25;" vertex="1" parent="ozSnwrf6JVXW-IfmkyOd-32">
          <mxGeometry x="430" width="54" height="53" as="geometry">
            <mxRectangle width="54" height="53" as="alternateBounds" />
          </mxGeometry>
        </mxCell>
        <mxCell id="ozSnwrf6JVXW-IfmkyOd-69" style="shape=partialRectangle;html=1;whiteSpace=wrap;connectable=0;fillColor=none;top=0;left=0;bottom=0;right=0;overflow=hidden;glass=0;fillStyle=auto;fontFamily=Verdana;fontSize=25;" vertex="1" parent="ozSnwrf6JVXW-IfmkyOd-32">
          <mxGeometry x="484" width="54" height="53" as="geometry">
            <mxRectangle width="54" height="53" as="alternateBounds" />
          </mxGeometry>
        </mxCell>
        <mxCell id="ozSnwrf6JVXW-IfmkyOd-179" style="shape=partialRectangle;html=1;whiteSpace=wrap;connectable=0;fillColor=none;top=0;left=0;bottom=0;right=0;overflow=hidden;glass=0;fillStyle=auto;fontFamily=Verdana;fontSize=25;" vertex="1" parent="ozSnwrf6JVXW-IfmkyOd-32">
          <mxGeometry x="538" width="54" height="53" as="geometry">
            <mxRectangle width="54" height="53" as="alternateBounds" />
          </mxGeometry>
        </mxCell>
        <mxCell id="ozSnwrf6JVXW-IfmkyOd-36" value="" style="shape=tableRow;horizontal=0;startSize=0;swimlaneHead=0;swimlaneBody=0;top=0;left=0;bottom=0;right=0;collapsible=0;dropTarget=0;fillColor=none;points=[[0,0.5],[1,0.5]];portConstraint=eastwest;glass=0;fillStyle=auto;fontFamily=Verdana;fontSize=25;" vertex="1" parent="ozSnwrf6JVXW-IfmkyOd-31">
          <mxGeometry y="106" width="592" height="54" as="geometry" />
        </mxCell>
        <mxCell id="ozSnwrf6JVXW-IfmkyOd-57" style="shape=partialRectangle;html=1;whiteSpace=wrap;connectable=0;fillColor=none;top=0;left=0;bottom=0;right=0;overflow=hidden;glass=0;fillStyle=auto;fontFamily=Verdana;fontSize=25;" vertex="1" parent="ozSnwrf6JVXW-IfmkyOd-36">
          <mxGeometry width="54" height="54" as="geometry">
            <mxRectangle width="54" height="54" as="alternateBounds" />
          </mxGeometry>
        </mxCell>
        <mxCell id="ozSnwrf6JVXW-IfmkyOd-54" style="shape=partialRectangle;html=1;whiteSpace=wrap;connectable=0;fillColor=none;top=0;left=0;bottom=0;right=0;overflow=hidden;glass=0;fillStyle=auto;fontFamily=Verdana;fontSize=25;" vertex="1" parent="ozSnwrf6JVXW-IfmkyOd-36">
          <mxGeometry x="54" width="53" height="54" as="geometry">
            <mxRectangle width="53" height="54" as="alternateBounds" />
          </mxGeometry>
        </mxCell>
        <mxCell id="ozSnwrf6JVXW-IfmkyOd-51" style="shape=partialRectangle;html=1;whiteSpace=wrap;connectable=0;fillColor=none;top=0;left=0;bottom=0;right=0;overflow=hidden;glass=0;fillStyle=auto;fontFamily=Verdana;fontSize=25;" vertex="1" parent="ozSnwrf6JVXW-IfmkyOd-36">
          <mxGeometry x="107" width="54" height="54" as="geometry">
            <mxRectangle width="54" height="54" as="alternateBounds" />
          </mxGeometry>
        </mxCell>
        <mxCell id="ozSnwrf6JVXW-IfmkyOd-48" style="shape=partialRectangle;html=1;whiteSpace=wrap;connectable=0;fillColor=none;top=0;left=0;bottom=0;right=0;overflow=hidden;glass=0;fillStyle=auto;fontFamily=Verdana;fontSize=25;" vertex="1" parent="ozSnwrf6JVXW-IfmkyOd-36">
          <mxGeometry x="161" width="53" height="54" as="geometry">
            <mxRectangle width="53" height="54" as="alternateBounds" />
          </mxGeometry>
        </mxCell>
        <mxCell id="ozSnwrf6JVXW-IfmkyOd-45" style="shape=partialRectangle;html=1;whiteSpace=wrap;connectable=0;fillColor=none;top=0;left=0;bottom=0;right=0;overflow=hidden;glass=0;fillStyle=auto;fontFamily=Verdana;fontSize=25;" vertex="1" parent="ozSnwrf6JVXW-IfmkyOd-36">
          <mxGeometry x="214" width="54" height="54" as="geometry">
            <mxRectangle width="54" height="54" as="alternateBounds" />
          </mxGeometry>
        </mxCell>
        <mxCell id="ozSnwrf6JVXW-IfmkyOd-37" value="" style="shape=partialRectangle;html=1;whiteSpace=wrap;connectable=0;fillColor=none;top=0;left=0;bottom=0;right=0;overflow=hidden;glass=0;fillStyle=auto;fontFamily=Verdana;fontSize=25;" vertex="1" parent="ozSnwrf6JVXW-IfmkyOd-36">
          <mxGeometry x="268" width="54" height="54" as="geometry">
            <mxRectangle width="54" height="54" as="alternateBounds" />
          </mxGeometry>
        </mxCell>
        <mxCell id="ozSnwrf6JVXW-IfmkyOd-38" value="" style="shape=partialRectangle;html=1;whiteSpace=wrap;connectable=0;fillColor=none;top=0;left=0;bottom=0;right=0;overflow=hidden;glass=0;fillStyle=auto;fontFamily=Verdana;fontSize=25;" vertex="1" parent="ozSnwrf6JVXW-IfmkyOd-36">
          <mxGeometry x="322" width="54" height="54" as="geometry">
            <mxRectangle width="54" height="54" as="alternateBounds" />
          </mxGeometry>
        </mxCell>
        <mxCell id="ozSnwrf6JVXW-IfmkyOd-39" value="" style="shape=partialRectangle;html=1;whiteSpace=wrap;connectable=0;fillColor=none;top=0;left=0;bottom=0;right=0;overflow=hidden;glass=0;fillStyle=auto;fontFamily=Verdana;fontSize=25;" vertex="1" parent="ozSnwrf6JVXW-IfmkyOd-36">
          <mxGeometry x="376" width="54" height="54" as="geometry">
            <mxRectangle width="54" height="54" as="alternateBounds" />
          </mxGeometry>
        </mxCell>
        <mxCell id="ozSnwrf6JVXW-IfmkyOd-67" style="shape=partialRectangle;html=1;whiteSpace=wrap;connectable=0;fillColor=none;top=0;left=0;bottom=0;right=0;overflow=hidden;glass=0;fillStyle=auto;fontFamily=Verdana;fontSize=25;" vertex="1" parent="ozSnwrf6JVXW-IfmkyOd-36">
          <mxGeometry x="430" width="54" height="54" as="geometry">
            <mxRectangle width="54" height="54" as="alternateBounds" />
          </mxGeometry>
        </mxCell>
        <mxCell id="ozSnwrf6JVXW-IfmkyOd-70" style="shape=partialRectangle;html=1;whiteSpace=wrap;connectable=0;fillColor=none;top=0;left=0;bottom=0;right=0;overflow=hidden;glass=0;fillStyle=auto;fontFamily=Verdana;fontSize=25;" vertex="1" parent="ozSnwrf6JVXW-IfmkyOd-36">
          <mxGeometry x="484" width="54" height="54" as="geometry">
            <mxRectangle width="54" height="54" as="alternateBounds" />
          </mxGeometry>
        </mxCell>
        <mxCell id="ozSnwrf6JVXW-IfmkyOd-180" style="shape=partialRectangle;html=1;whiteSpace=wrap;connectable=0;fillColor=none;top=0;left=0;bottom=0;right=0;overflow=hidden;glass=0;fillStyle=auto;fontFamily=Verdana;fontSize=25;" vertex="1" parent="ozSnwrf6JVXW-IfmkyOd-36">
          <mxGeometry x="538" width="54" height="54" as="geometry">
            <mxRectangle width="54" height="54" as="alternateBounds" />
          </mxGeometry>
        </mxCell>
        <mxCell id="ozSnwrf6JVXW-IfmkyOd-40" value="" style="shape=tableRow;horizontal=0;startSize=0;swimlaneHead=0;swimlaneBody=0;top=0;left=0;bottom=0;right=0;collapsible=0;dropTarget=0;fillColor=none;points=[[0,0.5],[1,0.5]];portConstraint=eastwest;glass=0;fillStyle=auto;fontFamily=Verdana;fontSize=25;" vertex="1" parent="ozSnwrf6JVXW-IfmkyOd-31">
          <mxGeometry y="160" width="592" height="53" as="geometry" />
        </mxCell>
        <mxCell id="ozSnwrf6JVXW-IfmkyOd-58" style="shape=partialRectangle;html=1;whiteSpace=wrap;connectable=0;fillColor=none;top=0;left=0;bottom=0;right=0;overflow=hidden;glass=0;fillStyle=auto;fontFamily=Verdana;fontSize=25;" vertex="1" parent="ozSnwrf6JVXW-IfmkyOd-40">
          <mxGeometry width="54" height="53" as="geometry">
            <mxRectangle width="54" height="53" as="alternateBounds" />
          </mxGeometry>
        </mxCell>
        <mxCell id="ozSnwrf6JVXW-IfmkyOd-55" style="shape=partialRectangle;html=1;whiteSpace=wrap;connectable=0;fillColor=none;top=0;left=0;bottom=0;right=0;overflow=hidden;glass=0;fillStyle=auto;fontFamily=Verdana;fontSize=25;" vertex="1" parent="ozSnwrf6JVXW-IfmkyOd-40">
          <mxGeometry x="54" width="53" height="53" as="geometry">
            <mxRectangle width="53" height="53" as="alternateBounds" />
          </mxGeometry>
        </mxCell>
        <mxCell id="ozSnwrf6JVXW-IfmkyOd-52" style="shape=partialRectangle;html=1;whiteSpace=wrap;connectable=0;fillColor=none;top=0;left=0;bottom=0;right=0;overflow=hidden;glass=0;fillStyle=auto;fontFamily=Verdana;fontSize=25;" vertex="1" parent="ozSnwrf6JVXW-IfmkyOd-40">
          <mxGeometry x="107" width="54" height="53" as="geometry">
            <mxRectangle width="54" height="53" as="alternateBounds" />
          </mxGeometry>
        </mxCell>
        <mxCell id="ozSnwrf6JVXW-IfmkyOd-49" style="shape=partialRectangle;html=1;whiteSpace=wrap;connectable=0;fillColor=none;top=0;left=0;bottom=0;right=0;overflow=hidden;glass=0;fillStyle=auto;fontFamily=Verdana;fontSize=25;" vertex="1" parent="ozSnwrf6JVXW-IfmkyOd-40">
          <mxGeometry x="161" width="53" height="53" as="geometry">
            <mxRectangle width="53" height="53" as="alternateBounds" />
          </mxGeometry>
        </mxCell>
        <mxCell id="ozSnwrf6JVXW-IfmkyOd-46" style="shape=partialRectangle;html=1;whiteSpace=wrap;connectable=0;fillColor=none;top=0;left=0;bottom=0;right=0;overflow=hidden;glass=0;fillStyle=auto;fontFamily=Verdana;fontSize=25;" vertex="1" parent="ozSnwrf6JVXW-IfmkyOd-40">
          <mxGeometry x="214" width="54" height="53" as="geometry">
            <mxRectangle width="54" height="53" as="alternateBounds" />
          </mxGeometry>
        </mxCell>
        <mxCell id="ozSnwrf6JVXW-IfmkyOd-41" value="" style="shape=partialRectangle;html=1;whiteSpace=wrap;connectable=0;fillColor=none;top=0;left=0;bottom=0;right=0;overflow=hidden;glass=0;fillStyle=auto;fontFamily=Verdana;fontSize=25;" vertex="1" parent="ozSnwrf6JVXW-IfmkyOd-40">
          <mxGeometry x="268" width="54" height="53" as="geometry">
            <mxRectangle width="54" height="53" as="alternateBounds" />
          </mxGeometry>
        </mxCell>
        <mxCell id="ozSnwrf6JVXW-IfmkyOd-42" value="" style="shape=partialRectangle;html=1;whiteSpace=wrap;connectable=0;fillColor=none;top=0;left=0;bottom=0;right=0;overflow=hidden;glass=0;fillStyle=auto;fontFamily=Verdana;fontSize=25;" vertex="1" parent="ozSnwrf6JVXW-IfmkyOd-40">
          <mxGeometry x="322" width="54" height="53" as="geometry">
            <mxRectangle width="54" height="53" as="alternateBounds" />
          </mxGeometry>
        </mxCell>
        <mxCell id="ozSnwrf6JVXW-IfmkyOd-43" value="" style="shape=partialRectangle;html=1;whiteSpace=wrap;connectable=0;fillColor=none;top=0;left=0;bottom=0;right=0;overflow=hidden;pointerEvents=1;glass=0;fillStyle=auto;fontFamily=Verdana;fontSize=25;" vertex="1" parent="ozSnwrf6JVXW-IfmkyOd-40">
          <mxGeometry x="376" width="54" height="53" as="geometry">
            <mxRectangle width="54" height="53" as="alternateBounds" />
          </mxGeometry>
        </mxCell>
        <mxCell id="ozSnwrf6JVXW-IfmkyOd-68" style="shape=partialRectangle;html=1;whiteSpace=wrap;connectable=0;fillColor=none;top=0;left=0;bottom=0;right=0;overflow=hidden;pointerEvents=1;glass=0;fillStyle=auto;fontFamily=Verdana;fontSize=25;" vertex="1" parent="ozSnwrf6JVXW-IfmkyOd-40">
          <mxGeometry x="430" width="54" height="53" as="geometry">
            <mxRectangle width="54" height="53" as="alternateBounds" />
          </mxGeometry>
        </mxCell>
        <mxCell id="ozSnwrf6JVXW-IfmkyOd-71" style="shape=partialRectangle;html=1;whiteSpace=wrap;connectable=0;fillColor=none;top=0;left=0;bottom=0;right=0;overflow=hidden;pointerEvents=1;glass=0;fillStyle=auto;fontFamily=Verdana;fontSize=25;" vertex="1" parent="ozSnwrf6JVXW-IfmkyOd-40">
          <mxGeometry x="484" width="54" height="53" as="geometry">
            <mxRectangle width="54" height="53" as="alternateBounds" />
          </mxGeometry>
        </mxCell>
        <mxCell id="ozSnwrf6JVXW-IfmkyOd-181" style="shape=partialRectangle;html=1;whiteSpace=wrap;connectable=0;fillColor=none;top=0;left=0;bottom=0;right=0;overflow=hidden;pointerEvents=1;glass=0;fillStyle=auto;fontFamily=Verdana;fontSize=25;" vertex="1" parent="ozSnwrf6JVXW-IfmkyOd-40">
          <mxGeometry x="538" width="54" height="53" as="geometry">
            <mxRectangle width="54" height="53" as="alternateBounds" />
          </mxGeometry>
        </mxCell>
        <mxCell id="ozSnwrf6JVXW-IfmkyOd-78" style="shape=tableRow;horizontal=0;startSize=0;swimlaneHead=0;swimlaneBody=0;top=0;left=0;bottom=0;right=0;collapsible=0;dropTarget=0;fillColor=none;points=[[0,0.5],[1,0.5]];portConstraint=eastwest;glass=0;fillStyle=auto;fontFamily=Verdana;fontSize=25;" vertex="1" parent="ozSnwrf6JVXW-IfmkyOd-31">
          <mxGeometry y="213" width="592" height="53" as="geometry" />
        </mxCell>
        <mxCell id="ozSnwrf6JVXW-IfmkyOd-79" style="shape=partialRectangle;html=1;whiteSpace=wrap;connectable=0;fillColor=none;top=0;left=0;bottom=0;right=0;overflow=hidden;glass=0;fillStyle=auto;fontFamily=Verdana;fontSize=25;" vertex="1" parent="ozSnwrf6JVXW-IfmkyOd-78">
          <mxGeometry width="54" height="53" as="geometry">
            <mxRectangle width="54" height="53" as="alternateBounds" />
          </mxGeometry>
        </mxCell>
        <mxCell id="ozSnwrf6JVXW-IfmkyOd-80" style="shape=partialRectangle;html=1;whiteSpace=wrap;connectable=0;fillColor=none;top=0;left=0;bottom=0;right=0;overflow=hidden;glass=0;fillStyle=auto;fontFamily=Verdana;fontSize=25;" vertex="1" parent="ozSnwrf6JVXW-IfmkyOd-78">
          <mxGeometry x="54" width="53" height="53" as="geometry">
            <mxRectangle width="53" height="53" as="alternateBounds" />
          </mxGeometry>
        </mxCell>
        <mxCell id="ozSnwrf6JVXW-IfmkyOd-81" style="shape=partialRectangle;html=1;whiteSpace=wrap;connectable=0;fillColor=none;top=0;left=0;bottom=0;right=0;overflow=hidden;glass=0;fillStyle=auto;fontFamily=Verdana;fontSize=25;" vertex="1" parent="ozSnwrf6JVXW-IfmkyOd-78">
          <mxGeometry x="107" width="54" height="53" as="geometry">
            <mxRectangle width="54" height="53" as="alternateBounds" />
          </mxGeometry>
        </mxCell>
        <mxCell id="ozSnwrf6JVXW-IfmkyOd-82" style="shape=partialRectangle;html=1;whiteSpace=wrap;connectable=0;fillColor=none;top=0;left=0;bottom=0;right=0;overflow=hidden;glass=0;fillStyle=auto;fontFamily=Verdana;fontSize=25;" vertex="1" parent="ozSnwrf6JVXW-IfmkyOd-78">
          <mxGeometry x="161" width="53" height="53" as="geometry">
            <mxRectangle width="53" height="53" as="alternateBounds" />
          </mxGeometry>
        </mxCell>
        <mxCell id="ozSnwrf6JVXW-IfmkyOd-83" style="shape=partialRectangle;html=1;whiteSpace=wrap;connectable=0;fillColor=none;top=0;left=0;bottom=0;right=0;overflow=hidden;glass=0;fillStyle=auto;fontFamily=Verdana;fontSize=25;" vertex="1" parent="ozSnwrf6JVXW-IfmkyOd-78">
          <mxGeometry x="214" width="54" height="53" as="geometry">
            <mxRectangle width="54" height="53" as="alternateBounds" />
          </mxGeometry>
        </mxCell>
        <mxCell id="ozSnwrf6JVXW-IfmkyOd-84" style="shape=partialRectangle;html=1;whiteSpace=wrap;connectable=0;fillColor=none;top=0;left=0;bottom=0;right=0;overflow=hidden;glass=0;fillStyle=auto;fontFamily=Verdana;fontSize=25;" vertex="1" parent="ozSnwrf6JVXW-IfmkyOd-78">
          <mxGeometry x="268" width="54" height="53" as="geometry">
            <mxRectangle width="54" height="53" as="alternateBounds" />
          </mxGeometry>
        </mxCell>
        <mxCell id="ozSnwrf6JVXW-IfmkyOd-85" style="shape=partialRectangle;html=1;whiteSpace=wrap;connectable=0;fillColor=none;top=0;left=0;bottom=0;right=0;overflow=hidden;glass=0;fillStyle=auto;fontFamily=Verdana;fontSize=25;" vertex="1" parent="ozSnwrf6JVXW-IfmkyOd-78">
          <mxGeometry x="322" width="54" height="53" as="geometry">
            <mxRectangle width="54" height="53" as="alternateBounds" />
          </mxGeometry>
        </mxCell>
        <mxCell id="ozSnwrf6JVXW-IfmkyOd-86" style="shape=partialRectangle;html=1;whiteSpace=wrap;connectable=0;fillColor=none;top=0;left=0;bottom=0;right=0;overflow=hidden;pointerEvents=1;glass=0;fillStyle=auto;fontFamily=Verdana;fontSize=25;" vertex="1" parent="ozSnwrf6JVXW-IfmkyOd-78">
          <mxGeometry x="376" width="54" height="53" as="geometry">
            <mxRectangle width="54" height="53" as="alternateBounds" />
          </mxGeometry>
        </mxCell>
        <mxCell id="ozSnwrf6JVXW-IfmkyOd-87" style="shape=partialRectangle;html=1;whiteSpace=wrap;connectable=0;fillColor=none;top=0;left=0;bottom=0;right=0;overflow=hidden;pointerEvents=1;glass=0;fillStyle=auto;fontFamily=Verdana;fontSize=25;" vertex="1" parent="ozSnwrf6JVXW-IfmkyOd-78">
          <mxGeometry x="430" width="54" height="53" as="geometry">
            <mxRectangle width="54" height="53" as="alternateBounds" />
          </mxGeometry>
        </mxCell>
        <mxCell id="ozSnwrf6JVXW-IfmkyOd-88" style="shape=partialRectangle;html=1;whiteSpace=wrap;connectable=0;fillColor=none;top=0;left=0;bottom=0;right=0;overflow=hidden;pointerEvents=1;glass=0;fillStyle=auto;fontFamily=Verdana;fontSize=25;" vertex="1" parent="ozSnwrf6JVXW-IfmkyOd-78">
          <mxGeometry x="484" width="54" height="53" as="geometry">
            <mxRectangle width="54" height="53" as="alternateBounds" />
          </mxGeometry>
        </mxCell>
        <mxCell id="ozSnwrf6JVXW-IfmkyOd-182" style="shape=partialRectangle;html=1;whiteSpace=wrap;connectable=0;fillColor=none;top=0;left=0;bottom=0;right=0;overflow=hidden;pointerEvents=1;glass=0;fillStyle=auto;fontFamily=Verdana;fontSize=25;" vertex="1" parent="ozSnwrf6JVXW-IfmkyOd-78">
          <mxGeometry x="538" width="54" height="53" as="geometry">
            <mxRectangle width="54" height="53" as="alternateBounds" />
          </mxGeometry>
        </mxCell>
        <mxCell id="ozSnwrf6JVXW-IfmkyOd-89" style="shape=tableRow;horizontal=0;startSize=0;swimlaneHead=0;swimlaneBody=0;top=0;left=0;bottom=0;right=0;collapsible=0;dropTarget=0;fillColor=none;points=[[0,0.5],[1,0.5]];portConstraint=eastwest;glass=0;fillStyle=auto;fontFamily=Verdana;fontSize=25;" vertex="1" parent="ozSnwrf6JVXW-IfmkyOd-31">
          <mxGeometry y="266" width="592" height="53" as="geometry" />
        </mxCell>
        <mxCell id="ozSnwrf6JVXW-IfmkyOd-90" style="shape=partialRectangle;html=1;whiteSpace=wrap;connectable=0;fillColor=none;top=0;left=0;bottom=0;right=0;overflow=hidden;glass=0;fillStyle=auto;fontFamily=Verdana;fontSize=25;" vertex="1" parent="ozSnwrf6JVXW-IfmkyOd-89">
          <mxGeometry width="54" height="53" as="geometry">
            <mxRectangle width="54" height="53" as="alternateBounds" />
          </mxGeometry>
        </mxCell>
        <mxCell id="ozSnwrf6JVXW-IfmkyOd-91" style="shape=partialRectangle;html=1;whiteSpace=wrap;connectable=0;fillColor=none;top=0;left=0;bottom=0;right=0;overflow=hidden;glass=0;fillStyle=auto;fontFamily=Verdana;fontSize=25;" vertex="1" parent="ozSnwrf6JVXW-IfmkyOd-89">
          <mxGeometry x="54" width="53" height="53" as="geometry">
            <mxRectangle width="53" height="53" as="alternateBounds" />
          </mxGeometry>
        </mxCell>
        <mxCell id="ozSnwrf6JVXW-IfmkyOd-92" style="shape=partialRectangle;html=1;whiteSpace=wrap;connectable=0;fillColor=none;top=0;left=0;bottom=0;right=0;overflow=hidden;glass=0;fillStyle=auto;fontFamily=Verdana;fontSize=25;" vertex="1" parent="ozSnwrf6JVXW-IfmkyOd-89">
          <mxGeometry x="107" width="54" height="53" as="geometry">
            <mxRectangle width="54" height="53" as="alternateBounds" />
          </mxGeometry>
        </mxCell>
        <mxCell id="ozSnwrf6JVXW-IfmkyOd-93" style="shape=partialRectangle;html=1;whiteSpace=wrap;connectable=0;fillColor=none;top=0;left=0;bottom=0;right=0;overflow=hidden;glass=0;fillStyle=auto;fontFamily=Verdana;fontSize=25;" vertex="1" parent="ozSnwrf6JVXW-IfmkyOd-89">
          <mxGeometry x="161" width="53" height="53" as="geometry">
            <mxRectangle width="53" height="53" as="alternateBounds" />
          </mxGeometry>
        </mxCell>
        <mxCell id="ozSnwrf6JVXW-IfmkyOd-94" style="shape=partialRectangle;html=1;whiteSpace=wrap;connectable=0;fillColor=none;top=0;left=0;bottom=0;right=0;overflow=hidden;glass=0;fillStyle=auto;fontFamily=Verdana;fontSize=25;" vertex="1" parent="ozSnwrf6JVXW-IfmkyOd-89">
          <mxGeometry x="214" width="54" height="53" as="geometry">
            <mxRectangle width="54" height="53" as="alternateBounds" />
          </mxGeometry>
        </mxCell>
        <mxCell id="ozSnwrf6JVXW-IfmkyOd-95" style="shape=partialRectangle;html=1;whiteSpace=wrap;connectable=0;fillColor=none;top=0;left=0;bottom=0;right=0;overflow=hidden;glass=0;fillStyle=auto;fontFamily=Verdana;fontSize=25;" vertex="1" parent="ozSnwrf6JVXW-IfmkyOd-89">
          <mxGeometry x="268" width="54" height="53" as="geometry">
            <mxRectangle width="54" height="53" as="alternateBounds" />
          </mxGeometry>
        </mxCell>
        <mxCell id="ozSnwrf6JVXW-IfmkyOd-96" style="shape=partialRectangle;html=1;whiteSpace=wrap;connectable=0;fillColor=none;top=0;left=0;bottom=0;right=0;overflow=hidden;glass=0;fillStyle=auto;fontFamily=Verdana;fontSize=25;" vertex="1" parent="ozSnwrf6JVXW-IfmkyOd-89">
          <mxGeometry x="322" width="54" height="53" as="geometry">
            <mxRectangle width="54" height="53" as="alternateBounds" />
          </mxGeometry>
        </mxCell>
        <mxCell id="ozSnwrf6JVXW-IfmkyOd-97" style="shape=partialRectangle;html=1;whiteSpace=wrap;connectable=0;fillColor=none;top=0;left=0;bottom=0;right=0;overflow=hidden;pointerEvents=1;glass=0;fillStyle=auto;fontFamily=Verdana;fontSize=25;" vertex="1" parent="ozSnwrf6JVXW-IfmkyOd-89">
          <mxGeometry x="376" width="54" height="53" as="geometry">
            <mxRectangle width="54" height="53" as="alternateBounds" />
          </mxGeometry>
        </mxCell>
        <mxCell id="ozSnwrf6JVXW-IfmkyOd-98" style="shape=partialRectangle;html=1;whiteSpace=wrap;connectable=0;fillColor=none;top=0;left=0;bottom=0;right=0;overflow=hidden;pointerEvents=1;glass=0;fillStyle=auto;fontFamily=Verdana;fontSize=25;" vertex="1" parent="ozSnwrf6JVXW-IfmkyOd-89">
          <mxGeometry x="430" width="54" height="53" as="geometry">
            <mxRectangle width="54" height="53" as="alternateBounds" />
          </mxGeometry>
        </mxCell>
        <mxCell id="ozSnwrf6JVXW-IfmkyOd-99" style="shape=partialRectangle;html=1;whiteSpace=wrap;connectable=0;fillColor=none;top=0;left=0;bottom=0;right=0;overflow=hidden;pointerEvents=1;glass=0;fillStyle=auto;fontFamily=Verdana;fontSize=25;" vertex="1" parent="ozSnwrf6JVXW-IfmkyOd-89">
          <mxGeometry x="484" width="54" height="53" as="geometry">
            <mxRectangle width="54" height="53" as="alternateBounds" />
          </mxGeometry>
        </mxCell>
        <mxCell id="ozSnwrf6JVXW-IfmkyOd-183" style="shape=partialRectangle;html=1;whiteSpace=wrap;connectable=0;fillColor=none;top=0;left=0;bottom=0;right=0;overflow=hidden;pointerEvents=1;glass=0;fillStyle=auto;fontFamily=Verdana;fontSize=25;" vertex="1" parent="ozSnwrf6JVXW-IfmkyOd-89">
          <mxGeometry x="538" width="54" height="53" as="geometry">
            <mxRectangle width="54" height="53" as="alternateBounds" />
          </mxGeometry>
        </mxCell>
        <mxCell id="ozSnwrf6JVXW-IfmkyOd-100" style="shape=tableRow;horizontal=0;startSize=0;swimlaneHead=0;swimlaneBody=0;top=0;left=0;bottom=0;right=0;collapsible=0;dropTarget=0;fillColor=none;points=[[0,0.5],[1,0.5]];portConstraint=eastwest;glass=0;fillStyle=auto;fontFamily=Verdana;fontSize=25;" vertex="1" parent="ozSnwrf6JVXW-IfmkyOd-31">
          <mxGeometry y="319" width="592" height="53" as="geometry" />
        </mxCell>
        <mxCell id="ozSnwrf6JVXW-IfmkyOd-101" style="shape=partialRectangle;html=1;whiteSpace=wrap;connectable=0;fillColor=none;top=0;left=0;bottom=0;right=0;overflow=hidden;glass=0;fillStyle=auto;fontFamily=Verdana;fontSize=25;" vertex="1" parent="ozSnwrf6JVXW-IfmkyOd-100">
          <mxGeometry width="54" height="53" as="geometry">
            <mxRectangle width="54" height="53" as="alternateBounds" />
          </mxGeometry>
        </mxCell>
        <mxCell id="ozSnwrf6JVXW-IfmkyOd-102" style="shape=partialRectangle;html=1;whiteSpace=wrap;connectable=0;fillColor=none;top=0;left=0;bottom=0;right=0;overflow=hidden;glass=0;fillStyle=auto;fontFamily=Verdana;fontSize=25;" vertex="1" parent="ozSnwrf6JVXW-IfmkyOd-100">
          <mxGeometry x="54" width="53" height="53" as="geometry">
            <mxRectangle width="53" height="53" as="alternateBounds" />
          </mxGeometry>
        </mxCell>
        <mxCell id="ozSnwrf6JVXW-IfmkyOd-103" style="shape=partialRectangle;html=1;whiteSpace=wrap;connectable=0;fillColor=none;top=0;left=0;bottom=0;right=0;overflow=hidden;glass=0;fillStyle=auto;fontFamily=Verdana;fontSize=25;" vertex="1" parent="ozSnwrf6JVXW-IfmkyOd-100">
          <mxGeometry x="107" width="54" height="53" as="geometry">
            <mxRectangle width="54" height="53" as="alternateBounds" />
          </mxGeometry>
        </mxCell>
        <mxCell id="ozSnwrf6JVXW-IfmkyOd-104" style="shape=partialRectangle;html=1;whiteSpace=wrap;connectable=0;fillColor=none;top=0;left=0;bottom=0;right=0;overflow=hidden;glass=0;fillStyle=auto;fontFamily=Verdana;fontSize=25;" vertex="1" parent="ozSnwrf6JVXW-IfmkyOd-100">
          <mxGeometry x="161" width="53" height="53" as="geometry">
            <mxRectangle width="53" height="53" as="alternateBounds" />
          </mxGeometry>
        </mxCell>
        <mxCell id="ozSnwrf6JVXW-IfmkyOd-105" style="shape=partialRectangle;html=1;whiteSpace=wrap;connectable=0;fillColor=none;top=0;left=0;bottom=0;right=0;overflow=hidden;glass=0;fillStyle=auto;fontFamily=Verdana;fontSize=25;" vertex="1" parent="ozSnwrf6JVXW-IfmkyOd-100">
          <mxGeometry x="214" width="54" height="53" as="geometry">
            <mxRectangle width="54" height="53" as="alternateBounds" />
          </mxGeometry>
        </mxCell>
        <mxCell id="ozSnwrf6JVXW-IfmkyOd-106" style="shape=partialRectangle;html=1;whiteSpace=wrap;connectable=0;fillColor=none;top=0;left=0;bottom=0;right=0;overflow=hidden;glass=0;fillStyle=auto;fontFamily=Verdana;fontSize=25;" vertex="1" parent="ozSnwrf6JVXW-IfmkyOd-100">
          <mxGeometry x="268" width="54" height="53" as="geometry">
            <mxRectangle width="54" height="53" as="alternateBounds" />
          </mxGeometry>
        </mxCell>
        <mxCell id="ozSnwrf6JVXW-IfmkyOd-107" style="shape=partialRectangle;html=1;whiteSpace=wrap;connectable=0;fillColor=none;top=0;left=0;bottom=0;right=0;overflow=hidden;glass=0;fillStyle=auto;fontFamily=Verdana;fontSize=25;" vertex="1" parent="ozSnwrf6JVXW-IfmkyOd-100">
          <mxGeometry x="322" width="54" height="53" as="geometry">
            <mxRectangle width="54" height="53" as="alternateBounds" />
          </mxGeometry>
        </mxCell>
        <mxCell id="ozSnwrf6JVXW-IfmkyOd-108" style="shape=partialRectangle;html=1;whiteSpace=wrap;connectable=0;fillColor=none;top=0;left=0;bottom=0;right=0;overflow=hidden;pointerEvents=1;glass=0;fillStyle=auto;fontFamily=Verdana;fontSize=25;" vertex="1" parent="ozSnwrf6JVXW-IfmkyOd-100">
          <mxGeometry x="376" width="54" height="53" as="geometry">
            <mxRectangle width="54" height="53" as="alternateBounds" />
          </mxGeometry>
        </mxCell>
        <mxCell id="ozSnwrf6JVXW-IfmkyOd-109" style="shape=partialRectangle;html=1;whiteSpace=wrap;connectable=0;fillColor=none;top=0;left=0;bottom=0;right=0;overflow=hidden;pointerEvents=1;glass=0;fillStyle=auto;fontFamily=Verdana;fontSize=25;" vertex="1" parent="ozSnwrf6JVXW-IfmkyOd-100">
          <mxGeometry x="430" width="54" height="53" as="geometry">
            <mxRectangle width="54" height="53" as="alternateBounds" />
          </mxGeometry>
        </mxCell>
        <mxCell id="ozSnwrf6JVXW-IfmkyOd-110" style="shape=partialRectangle;html=1;whiteSpace=wrap;connectable=0;fillColor=none;top=0;left=0;bottom=0;right=0;overflow=hidden;pointerEvents=1;glass=0;fillStyle=auto;fontFamily=Verdana;fontSize=25;" vertex="1" parent="ozSnwrf6JVXW-IfmkyOd-100">
          <mxGeometry x="484" width="54" height="53" as="geometry">
            <mxRectangle width="54" height="53" as="alternateBounds" />
          </mxGeometry>
        </mxCell>
        <mxCell id="ozSnwrf6JVXW-IfmkyOd-184" style="shape=partialRectangle;html=1;whiteSpace=wrap;connectable=0;fillColor=none;top=0;left=0;bottom=0;right=0;overflow=hidden;pointerEvents=1;glass=0;fillStyle=auto;fontFamily=Verdana;fontSize=25;" vertex="1" parent="ozSnwrf6JVXW-IfmkyOd-100">
          <mxGeometry x="538" width="54" height="53" as="geometry">
            <mxRectangle width="54" height="53" as="alternateBounds" />
          </mxGeometry>
        </mxCell>
        <mxCell id="ozSnwrf6JVXW-IfmkyOd-111" style="shape=tableRow;horizontal=0;startSize=0;swimlaneHead=0;swimlaneBody=0;top=0;left=0;bottom=0;right=0;collapsible=0;dropTarget=0;fillColor=none;points=[[0,0.5],[1,0.5]];portConstraint=eastwest;glass=0;fillStyle=auto;fontFamily=Verdana;fontSize=25;" vertex="1" parent="ozSnwrf6JVXW-IfmkyOd-31">
          <mxGeometry y="372" width="592" height="53" as="geometry" />
        </mxCell>
        <mxCell id="ozSnwrf6JVXW-IfmkyOd-112" style="shape=partialRectangle;html=1;whiteSpace=wrap;connectable=0;fillColor=none;top=0;left=0;bottom=0;right=0;overflow=hidden;glass=0;fillStyle=auto;fontFamily=Verdana;fontSize=25;" vertex="1" parent="ozSnwrf6JVXW-IfmkyOd-111">
          <mxGeometry width="54" height="53" as="geometry">
            <mxRectangle width="54" height="53" as="alternateBounds" />
          </mxGeometry>
        </mxCell>
        <mxCell id="ozSnwrf6JVXW-IfmkyOd-113" style="shape=partialRectangle;html=1;whiteSpace=wrap;connectable=0;fillColor=none;top=0;left=0;bottom=0;right=0;overflow=hidden;glass=0;fillStyle=auto;fontFamily=Verdana;fontSize=25;" vertex="1" parent="ozSnwrf6JVXW-IfmkyOd-111">
          <mxGeometry x="54" width="53" height="53" as="geometry">
            <mxRectangle width="53" height="53" as="alternateBounds" />
          </mxGeometry>
        </mxCell>
        <mxCell id="ozSnwrf6JVXW-IfmkyOd-114" style="shape=partialRectangle;html=1;whiteSpace=wrap;connectable=0;fillColor=none;top=0;left=0;bottom=0;right=0;overflow=hidden;glass=0;fillStyle=auto;fontFamily=Verdana;fontSize=25;" vertex="1" parent="ozSnwrf6JVXW-IfmkyOd-111">
          <mxGeometry x="107" width="54" height="53" as="geometry">
            <mxRectangle width="54" height="53" as="alternateBounds" />
          </mxGeometry>
        </mxCell>
        <mxCell id="ozSnwrf6JVXW-IfmkyOd-115" style="shape=partialRectangle;html=1;whiteSpace=wrap;connectable=0;fillColor=none;top=0;left=0;bottom=0;right=0;overflow=hidden;glass=0;fillStyle=auto;fontFamily=Verdana;fontSize=25;" vertex="1" parent="ozSnwrf6JVXW-IfmkyOd-111">
          <mxGeometry x="161" width="53" height="53" as="geometry">
            <mxRectangle width="53" height="53" as="alternateBounds" />
          </mxGeometry>
        </mxCell>
        <mxCell id="ozSnwrf6JVXW-IfmkyOd-116" style="shape=partialRectangle;html=1;whiteSpace=wrap;connectable=0;fillColor=none;top=0;left=0;bottom=0;right=0;overflow=hidden;glass=0;fillStyle=auto;fontFamily=Verdana;fontSize=25;" vertex="1" parent="ozSnwrf6JVXW-IfmkyOd-111">
          <mxGeometry x="214" width="54" height="53" as="geometry">
            <mxRectangle width="54" height="53" as="alternateBounds" />
          </mxGeometry>
        </mxCell>
        <mxCell id="ozSnwrf6JVXW-IfmkyOd-117" style="shape=partialRectangle;html=1;whiteSpace=wrap;connectable=0;fillColor=none;top=0;left=0;bottom=0;right=0;overflow=hidden;glass=0;fillStyle=auto;fontFamily=Verdana;fontSize=25;" vertex="1" parent="ozSnwrf6JVXW-IfmkyOd-111">
          <mxGeometry x="268" width="54" height="53" as="geometry">
            <mxRectangle width="54" height="53" as="alternateBounds" />
          </mxGeometry>
        </mxCell>
        <mxCell id="ozSnwrf6JVXW-IfmkyOd-118" style="shape=partialRectangle;html=1;whiteSpace=wrap;connectable=0;fillColor=none;top=0;left=0;bottom=0;right=0;overflow=hidden;glass=0;fillStyle=auto;fontFamily=Verdana;fontSize=25;" vertex="1" parent="ozSnwrf6JVXW-IfmkyOd-111">
          <mxGeometry x="322" width="54" height="53" as="geometry">
            <mxRectangle width="54" height="53" as="alternateBounds" />
          </mxGeometry>
        </mxCell>
        <mxCell id="ozSnwrf6JVXW-IfmkyOd-119" style="shape=partialRectangle;html=1;whiteSpace=wrap;connectable=0;fillColor=none;top=0;left=0;bottom=0;right=0;overflow=hidden;pointerEvents=1;glass=0;fillStyle=auto;fontFamily=Verdana;fontSize=25;" vertex="1" parent="ozSnwrf6JVXW-IfmkyOd-111">
          <mxGeometry x="376" width="54" height="53" as="geometry">
            <mxRectangle width="54" height="53" as="alternateBounds" />
          </mxGeometry>
        </mxCell>
        <mxCell id="ozSnwrf6JVXW-IfmkyOd-120" style="shape=partialRectangle;html=1;whiteSpace=wrap;connectable=0;fillColor=none;top=0;left=0;bottom=0;right=0;overflow=hidden;pointerEvents=1;glass=0;fillStyle=auto;fontFamily=Verdana;fontSize=25;" vertex="1" parent="ozSnwrf6JVXW-IfmkyOd-111">
          <mxGeometry x="430" width="54" height="53" as="geometry">
            <mxRectangle width="54" height="53" as="alternateBounds" />
          </mxGeometry>
        </mxCell>
        <mxCell id="ozSnwrf6JVXW-IfmkyOd-121" style="shape=partialRectangle;html=1;whiteSpace=wrap;connectable=0;fillColor=none;top=0;left=0;bottom=0;right=0;overflow=hidden;pointerEvents=1;glass=0;fillStyle=auto;fontFamily=Verdana;fontSize=25;" vertex="1" parent="ozSnwrf6JVXW-IfmkyOd-111">
          <mxGeometry x="484" width="54" height="53" as="geometry">
            <mxRectangle width="54" height="53" as="alternateBounds" />
          </mxGeometry>
        </mxCell>
        <mxCell id="ozSnwrf6JVXW-IfmkyOd-185" style="shape=partialRectangle;html=1;whiteSpace=wrap;connectable=0;fillColor=none;top=0;left=0;bottom=0;right=0;overflow=hidden;pointerEvents=1;glass=0;fillStyle=auto;fontFamily=Verdana;fontSize=25;" vertex="1" parent="ozSnwrf6JVXW-IfmkyOd-111">
          <mxGeometry x="538" width="54" height="53" as="geometry">
            <mxRectangle width="54" height="53" as="alternateBounds" />
          </mxGeometry>
        </mxCell>
        <mxCell id="ozSnwrf6JVXW-IfmkyOd-122" style="shape=tableRow;horizontal=0;startSize=0;swimlaneHead=0;swimlaneBody=0;top=0;left=0;bottom=0;right=0;collapsible=0;dropTarget=0;fillColor=none;points=[[0,0.5],[1,0.5]];portConstraint=eastwest;glass=0;fillStyle=auto;fontFamily=Verdana;fontSize=25;" vertex="1" parent="ozSnwrf6JVXW-IfmkyOd-31">
          <mxGeometry y="425" width="592" height="53" as="geometry" />
        </mxCell>
        <mxCell id="ozSnwrf6JVXW-IfmkyOd-123" style="shape=partialRectangle;html=1;whiteSpace=wrap;connectable=0;fillColor=none;top=0;left=0;bottom=0;right=0;overflow=hidden;glass=0;fillStyle=auto;fontFamily=Verdana;fontSize=25;" vertex="1" parent="ozSnwrf6JVXW-IfmkyOd-122">
          <mxGeometry width="54" height="53" as="geometry">
            <mxRectangle width="54" height="53" as="alternateBounds" />
          </mxGeometry>
        </mxCell>
        <mxCell id="ozSnwrf6JVXW-IfmkyOd-124" style="shape=partialRectangle;html=1;whiteSpace=wrap;connectable=0;fillColor=none;top=0;left=0;bottom=0;right=0;overflow=hidden;glass=0;fillStyle=auto;fontFamily=Verdana;fontSize=25;" vertex="1" parent="ozSnwrf6JVXW-IfmkyOd-122">
          <mxGeometry x="54" width="53" height="53" as="geometry">
            <mxRectangle width="53" height="53" as="alternateBounds" />
          </mxGeometry>
        </mxCell>
        <mxCell id="ozSnwrf6JVXW-IfmkyOd-125" style="shape=partialRectangle;html=1;whiteSpace=wrap;connectable=0;fillColor=none;top=0;left=0;bottom=0;right=0;overflow=hidden;glass=0;fillStyle=auto;fontFamily=Verdana;fontSize=25;" vertex="1" parent="ozSnwrf6JVXW-IfmkyOd-122">
          <mxGeometry x="107" width="54" height="53" as="geometry">
            <mxRectangle width="54" height="53" as="alternateBounds" />
          </mxGeometry>
        </mxCell>
        <mxCell id="ozSnwrf6JVXW-IfmkyOd-126" style="shape=partialRectangle;html=1;whiteSpace=wrap;connectable=0;fillColor=none;top=0;left=0;bottom=0;right=0;overflow=hidden;glass=0;fillStyle=auto;fontFamily=Verdana;fontSize=25;" vertex="1" parent="ozSnwrf6JVXW-IfmkyOd-122">
          <mxGeometry x="161" width="53" height="53" as="geometry">
            <mxRectangle width="53" height="53" as="alternateBounds" />
          </mxGeometry>
        </mxCell>
        <mxCell id="ozSnwrf6JVXW-IfmkyOd-127" style="shape=partialRectangle;html=1;whiteSpace=wrap;connectable=0;fillColor=none;top=0;left=0;bottom=0;right=0;overflow=hidden;glass=0;fillStyle=auto;fontFamily=Verdana;fontSize=25;" vertex="1" parent="ozSnwrf6JVXW-IfmkyOd-122">
          <mxGeometry x="214" width="54" height="53" as="geometry">
            <mxRectangle width="54" height="53" as="alternateBounds" />
          </mxGeometry>
        </mxCell>
        <mxCell id="ozSnwrf6JVXW-IfmkyOd-128" style="shape=partialRectangle;html=1;whiteSpace=wrap;connectable=0;fillColor=none;top=0;left=0;bottom=0;right=0;overflow=hidden;glass=0;fillStyle=auto;fontFamily=Verdana;fontSize=25;" vertex="1" parent="ozSnwrf6JVXW-IfmkyOd-122">
          <mxGeometry x="268" width="54" height="53" as="geometry">
            <mxRectangle width="54" height="53" as="alternateBounds" />
          </mxGeometry>
        </mxCell>
        <mxCell id="ozSnwrf6JVXW-IfmkyOd-129" style="shape=partialRectangle;html=1;whiteSpace=wrap;connectable=0;fillColor=none;top=0;left=0;bottom=0;right=0;overflow=hidden;glass=0;fillStyle=auto;fontFamily=Verdana;fontSize=25;" vertex="1" parent="ozSnwrf6JVXW-IfmkyOd-122">
          <mxGeometry x="322" width="54" height="53" as="geometry">
            <mxRectangle width="54" height="53" as="alternateBounds" />
          </mxGeometry>
        </mxCell>
        <mxCell id="ozSnwrf6JVXW-IfmkyOd-130" style="shape=partialRectangle;html=1;whiteSpace=wrap;connectable=0;fillColor=none;top=0;left=0;bottom=0;right=0;overflow=hidden;pointerEvents=1;glass=0;fillStyle=auto;fontFamily=Verdana;fontSize=25;" vertex="1" parent="ozSnwrf6JVXW-IfmkyOd-122">
          <mxGeometry x="376" width="54" height="53" as="geometry">
            <mxRectangle width="54" height="53" as="alternateBounds" />
          </mxGeometry>
        </mxCell>
        <mxCell id="ozSnwrf6JVXW-IfmkyOd-131" style="shape=partialRectangle;html=1;whiteSpace=wrap;connectable=0;fillColor=none;top=0;left=0;bottom=0;right=0;overflow=hidden;pointerEvents=1;glass=0;fillStyle=auto;fontFamily=Verdana;fontSize=25;" vertex="1" parent="ozSnwrf6JVXW-IfmkyOd-122">
          <mxGeometry x="430" width="54" height="53" as="geometry">
            <mxRectangle width="54" height="53" as="alternateBounds" />
          </mxGeometry>
        </mxCell>
        <mxCell id="ozSnwrf6JVXW-IfmkyOd-132" style="shape=partialRectangle;html=1;whiteSpace=wrap;connectable=0;fillColor=none;top=0;left=0;bottom=0;right=0;overflow=hidden;pointerEvents=1;glass=0;fillStyle=auto;fontFamily=Verdana;fontSize=25;" vertex="1" parent="ozSnwrf6JVXW-IfmkyOd-122">
          <mxGeometry x="484" width="54" height="53" as="geometry">
            <mxRectangle width="54" height="53" as="alternateBounds" />
          </mxGeometry>
        </mxCell>
        <mxCell id="ozSnwrf6JVXW-IfmkyOd-186" style="shape=partialRectangle;html=1;whiteSpace=wrap;connectable=0;fillColor=none;top=0;left=0;bottom=0;right=0;overflow=hidden;pointerEvents=1;glass=0;fillStyle=auto;fontFamily=Verdana;fontSize=25;" vertex="1" parent="ozSnwrf6JVXW-IfmkyOd-122">
          <mxGeometry x="538" width="54" height="53" as="geometry">
            <mxRectangle width="54" height="53" as="alternateBounds" />
          </mxGeometry>
        </mxCell>
        <mxCell id="ozSnwrf6JVXW-IfmkyOd-133" style="shape=tableRow;horizontal=0;startSize=0;swimlaneHead=0;swimlaneBody=0;top=0;left=0;bottom=0;right=0;collapsible=0;dropTarget=0;fillColor=none;points=[[0,0.5],[1,0.5]];portConstraint=eastwest;glass=0;fillStyle=auto;fontFamily=Verdana;fontSize=25;" vertex="1" parent="ozSnwrf6JVXW-IfmkyOd-31">
          <mxGeometry y="478" width="592" height="53" as="geometry" />
        </mxCell>
        <mxCell id="ozSnwrf6JVXW-IfmkyOd-134" style="shape=partialRectangle;html=1;whiteSpace=wrap;connectable=0;fillColor=none;top=0;left=0;bottom=0;right=0;overflow=hidden;glass=0;fillStyle=auto;fontFamily=Verdana;fontSize=25;" vertex="1" parent="ozSnwrf6JVXW-IfmkyOd-133">
          <mxGeometry width="54" height="53" as="geometry">
            <mxRectangle width="54" height="53" as="alternateBounds" />
          </mxGeometry>
        </mxCell>
        <mxCell id="ozSnwrf6JVXW-IfmkyOd-135" style="shape=partialRectangle;html=1;whiteSpace=wrap;connectable=0;fillColor=none;top=0;left=0;bottom=0;right=0;overflow=hidden;glass=0;fillStyle=auto;fontFamily=Verdana;fontSize=25;" vertex="1" parent="ozSnwrf6JVXW-IfmkyOd-133">
          <mxGeometry x="54" width="53" height="53" as="geometry">
            <mxRectangle width="53" height="53" as="alternateBounds" />
          </mxGeometry>
        </mxCell>
        <mxCell id="ozSnwrf6JVXW-IfmkyOd-136" style="shape=partialRectangle;html=1;whiteSpace=wrap;connectable=0;fillColor=none;top=0;left=0;bottom=0;right=0;overflow=hidden;glass=0;fillStyle=auto;fontFamily=Verdana;fontSize=25;" vertex="1" parent="ozSnwrf6JVXW-IfmkyOd-133">
          <mxGeometry x="107" width="54" height="53" as="geometry">
            <mxRectangle width="54" height="53" as="alternateBounds" />
          </mxGeometry>
        </mxCell>
        <mxCell id="ozSnwrf6JVXW-IfmkyOd-137" style="shape=partialRectangle;html=1;whiteSpace=wrap;connectable=0;fillColor=none;top=0;left=0;bottom=0;right=0;overflow=hidden;glass=0;fillStyle=auto;fontFamily=Verdana;fontSize=25;" vertex="1" parent="ozSnwrf6JVXW-IfmkyOd-133">
          <mxGeometry x="161" width="53" height="53" as="geometry">
            <mxRectangle width="53" height="53" as="alternateBounds" />
          </mxGeometry>
        </mxCell>
        <mxCell id="ozSnwrf6JVXW-IfmkyOd-138" style="shape=partialRectangle;html=1;whiteSpace=wrap;connectable=0;fillColor=none;top=0;left=0;bottom=0;right=0;overflow=hidden;glass=0;fillStyle=auto;fontFamily=Verdana;fontSize=25;" vertex="1" parent="ozSnwrf6JVXW-IfmkyOd-133">
          <mxGeometry x="214" width="54" height="53" as="geometry">
            <mxRectangle width="54" height="53" as="alternateBounds" />
          </mxGeometry>
        </mxCell>
        <mxCell id="ozSnwrf6JVXW-IfmkyOd-139" style="shape=partialRectangle;html=1;whiteSpace=wrap;connectable=0;fillColor=none;top=0;left=0;bottom=0;right=0;overflow=hidden;glass=0;fillStyle=auto;fontFamily=Verdana;fontSize=25;" vertex="1" parent="ozSnwrf6JVXW-IfmkyOd-133">
          <mxGeometry x="268" width="54" height="53" as="geometry">
            <mxRectangle width="54" height="53" as="alternateBounds" />
          </mxGeometry>
        </mxCell>
        <mxCell id="ozSnwrf6JVXW-IfmkyOd-140" style="shape=partialRectangle;html=1;whiteSpace=wrap;connectable=0;fillColor=none;top=0;left=0;bottom=0;right=0;overflow=hidden;glass=0;fillStyle=auto;fontFamily=Verdana;fontSize=25;" vertex="1" parent="ozSnwrf6JVXW-IfmkyOd-133">
          <mxGeometry x="322" width="54" height="53" as="geometry">
            <mxRectangle width="54" height="53" as="alternateBounds" />
          </mxGeometry>
        </mxCell>
        <mxCell id="ozSnwrf6JVXW-IfmkyOd-141" style="shape=partialRectangle;html=1;whiteSpace=wrap;connectable=0;fillColor=none;top=0;left=0;bottom=0;right=0;overflow=hidden;pointerEvents=1;glass=0;fillStyle=auto;fontFamily=Verdana;fontSize=25;" vertex="1" parent="ozSnwrf6JVXW-IfmkyOd-133">
          <mxGeometry x="376" width="54" height="53" as="geometry">
            <mxRectangle width="54" height="53" as="alternateBounds" />
          </mxGeometry>
        </mxCell>
        <mxCell id="ozSnwrf6JVXW-IfmkyOd-142" style="shape=partialRectangle;html=1;whiteSpace=wrap;connectable=0;fillColor=none;top=0;left=0;bottom=0;right=0;overflow=hidden;pointerEvents=1;glass=0;fillStyle=auto;fontFamily=Verdana;fontSize=25;" vertex="1" parent="ozSnwrf6JVXW-IfmkyOd-133">
          <mxGeometry x="430" width="54" height="53" as="geometry">
            <mxRectangle width="54" height="53" as="alternateBounds" />
          </mxGeometry>
        </mxCell>
        <mxCell id="ozSnwrf6JVXW-IfmkyOd-143" style="shape=partialRectangle;html=1;whiteSpace=wrap;connectable=0;fillColor=none;top=0;left=0;bottom=0;right=0;overflow=hidden;pointerEvents=1;glass=0;fillStyle=auto;fontFamily=Verdana;fontSize=25;" vertex="1" parent="ozSnwrf6JVXW-IfmkyOd-133">
          <mxGeometry x="484" width="54" height="53" as="geometry">
            <mxRectangle width="54" height="53" as="alternateBounds" />
          </mxGeometry>
        </mxCell>
        <mxCell id="ozSnwrf6JVXW-IfmkyOd-187" style="shape=partialRectangle;html=1;whiteSpace=wrap;connectable=0;fillColor=none;top=0;left=0;bottom=0;right=0;overflow=hidden;pointerEvents=1;glass=0;fillStyle=auto;fontFamily=Verdana;fontSize=25;" vertex="1" parent="ozSnwrf6JVXW-IfmkyOd-133">
          <mxGeometry x="538" width="54" height="53" as="geometry">
            <mxRectangle width="54" height="53" as="alternateBounds" />
          </mxGeometry>
        </mxCell>
        <mxCell id="ozSnwrf6JVXW-IfmkyOd-144" style="shape=tableRow;horizontal=0;startSize=0;swimlaneHead=0;swimlaneBody=0;top=0;left=0;bottom=0;right=0;collapsible=0;dropTarget=0;fillColor=none;points=[[0,0.5],[1,0.5]];portConstraint=eastwest;glass=0;fillStyle=auto;fontFamily=Verdana;fontSize=25;" vertex="1" parent="ozSnwrf6JVXW-IfmkyOd-31">
          <mxGeometry y="531" width="592" height="53" as="geometry" />
        </mxCell>
        <mxCell id="ozSnwrf6JVXW-IfmkyOd-145" style="shape=partialRectangle;html=1;whiteSpace=wrap;connectable=0;fillColor=none;top=0;left=0;bottom=0;right=0;overflow=hidden;glass=0;fillStyle=auto;fontFamily=Verdana;fontSize=25;" vertex="1" parent="ozSnwrf6JVXW-IfmkyOd-144">
          <mxGeometry width="54" height="53" as="geometry">
            <mxRectangle width="54" height="53" as="alternateBounds" />
          </mxGeometry>
        </mxCell>
        <mxCell id="ozSnwrf6JVXW-IfmkyOd-146" style="shape=partialRectangle;html=1;whiteSpace=wrap;connectable=0;fillColor=none;top=0;left=0;bottom=0;right=0;overflow=hidden;glass=0;fillStyle=auto;fontFamily=Verdana;fontSize=25;" vertex="1" parent="ozSnwrf6JVXW-IfmkyOd-144">
          <mxGeometry x="54" width="53" height="53" as="geometry">
            <mxRectangle width="53" height="53" as="alternateBounds" />
          </mxGeometry>
        </mxCell>
        <mxCell id="ozSnwrf6JVXW-IfmkyOd-147" style="shape=partialRectangle;html=1;whiteSpace=wrap;connectable=0;fillColor=none;top=0;left=0;bottom=0;right=0;overflow=hidden;glass=0;fillStyle=auto;fontFamily=Verdana;fontSize=25;" vertex="1" parent="ozSnwrf6JVXW-IfmkyOd-144">
          <mxGeometry x="107" width="54" height="53" as="geometry">
            <mxRectangle width="54" height="53" as="alternateBounds" />
          </mxGeometry>
        </mxCell>
        <mxCell id="ozSnwrf6JVXW-IfmkyOd-148" style="shape=partialRectangle;html=1;whiteSpace=wrap;connectable=0;fillColor=none;top=0;left=0;bottom=0;right=0;overflow=hidden;glass=0;fillStyle=auto;fontFamily=Verdana;fontSize=25;" vertex="1" parent="ozSnwrf6JVXW-IfmkyOd-144">
          <mxGeometry x="161" width="53" height="53" as="geometry">
            <mxRectangle width="53" height="53" as="alternateBounds" />
          </mxGeometry>
        </mxCell>
        <mxCell id="ozSnwrf6JVXW-IfmkyOd-149" style="shape=partialRectangle;html=1;whiteSpace=wrap;connectable=0;fillColor=none;top=0;left=0;bottom=0;right=0;overflow=hidden;glass=0;fillStyle=auto;fontFamily=Verdana;fontSize=25;" vertex="1" parent="ozSnwrf6JVXW-IfmkyOd-144">
          <mxGeometry x="214" width="54" height="53" as="geometry">
            <mxRectangle width="54" height="53" as="alternateBounds" />
          </mxGeometry>
        </mxCell>
        <mxCell id="ozSnwrf6JVXW-IfmkyOd-150" style="shape=partialRectangle;html=1;whiteSpace=wrap;connectable=0;fillColor=none;top=0;left=0;bottom=0;right=0;overflow=hidden;glass=0;fillStyle=auto;fontFamily=Verdana;fontSize=25;" vertex="1" parent="ozSnwrf6JVXW-IfmkyOd-144">
          <mxGeometry x="268" width="54" height="53" as="geometry">
            <mxRectangle width="54" height="53" as="alternateBounds" />
          </mxGeometry>
        </mxCell>
        <mxCell id="ozSnwrf6JVXW-IfmkyOd-151" style="shape=partialRectangle;html=1;whiteSpace=wrap;connectable=0;fillColor=none;top=0;left=0;bottom=0;right=0;overflow=hidden;glass=0;fillStyle=auto;fontFamily=Verdana;fontSize=25;" vertex="1" parent="ozSnwrf6JVXW-IfmkyOd-144">
          <mxGeometry x="322" width="54" height="53" as="geometry">
            <mxRectangle width="54" height="53" as="alternateBounds" />
          </mxGeometry>
        </mxCell>
        <mxCell id="ozSnwrf6JVXW-IfmkyOd-152" style="shape=partialRectangle;html=1;whiteSpace=wrap;connectable=0;fillColor=none;top=0;left=0;bottom=0;right=0;overflow=hidden;pointerEvents=1;glass=0;fillStyle=auto;fontFamily=Verdana;fontSize=25;" vertex="1" parent="ozSnwrf6JVXW-IfmkyOd-144">
          <mxGeometry x="376" width="54" height="53" as="geometry">
            <mxRectangle width="54" height="53" as="alternateBounds" />
          </mxGeometry>
        </mxCell>
        <mxCell id="ozSnwrf6JVXW-IfmkyOd-153" style="shape=partialRectangle;html=1;whiteSpace=wrap;connectable=0;fillColor=none;top=0;left=0;bottom=0;right=0;overflow=hidden;pointerEvents=1;glass=0;fillStyle=auto;fontFamily=Verdana;fontSize=25;" vertex="1" parent="ozSnwrf6JVXW-IfmkyOd-144">
          <mxGeometry x="430" width="54" height="53" as="geometry">
            <mxRectangle width="54" height="53" as="alternateBounds" />
          </mxGeometry>
        </mxCell>
        <mxCell id="ozSnwrf6JVXW-IfmkyOd-154" style="shape=partialRectangle;html=1;whiteSpace=wrap;connectable=0;fillColor=none;top=0;left=0;bottom=0;right=0;overflow=hidden;pointerEvents=1;glass=0;fillStyle=auto;fontFamily=Verdana;fontSize=25;" vertex="1" parent="ozSnwrf6JVXW-IfmkyOd-144">
          <mxGeometry x="484" width="54" height="53" as="geometry">
            <mxRectangle width="54" height="53" as="alternateBounds" />
          </mxGeometry>
        </mxCell>
        <mxCell id="ozSnwrf6JVXW-IfmkyOd-188" style="shape=partialRectangle;html=1;whiteSpace=wrap;connectable=0;fillColor=none;top=0;left=0;bottom=0;right=0;overflow=hidden;pointerEvents=1;glass=0;fillStyle=auto;fontFamily=Verdana;fontSize=25;" vertex="1" parent="ozSnwrf6JVXW-IfmkyOd-144">
          <mxGeometry x="538" width="54" height="53" as="geometry">
            <mxRectangle width="54" height="53" as="alternateBounds" />
          </mxGeometry>
        </mxCell>
        <mxCell id="ozSnwrf6JVXW-IfmkyOd-59" value="&lt;font style=&quot;font-size: 15px;&quot;&gt;SW1&lt;/font&gt;" style="text;html=1;strokeColor=none;fillColor=none;align=center;verticalAlign=middle;whiteSpace=wrap;rounded=0;glass=0;fillStyle=auto;fontFamily=Verdana;fontSize=25;" vertex="1" parent="1">
          <mxGeometry x="475" y="930" width="60" height="30" as="geometry" />
        </mxCell>
        <mxCell id="ozSnwrf6JVXW-IfmkyOd-60" value="&lt;font style=&quot;font-size: 15px;&quot;&gt;SW2&lt;/font&gt;" style="text;html=1;strokeColor=none;fillColor=none;align=center;verticalAlign=middle;whiteSpace=wrap;rounded=0;glass=0;fillStyle=auto;fontFamily=Verdana;fontSize=25;" vertex="1" parent="1">
          <mxGeometry x="535" y="930" width="60" height="30" as="geometry" />
        </mxCell>
        <mxCell id="ozSnwrf6JVXW-IfmkyOd-61" value="&lt;font style=&quot;font-size: 15px;&quot;&gt;SWn&lt;/font&gt;" style="text;html=1;strokeColor=none;fillColor=none;align=center;verticalAlign=middle;whiteSpace=wrap;rounded=0;glass=0;fillStyle=auto;fontFamily=Verdana;fontSize=25;" vertex="1" parent="1">
          <mxGeometry x="636" y="930" width="60" height="30" as="geometry" />
        </mxCell>
        <mxCell id="ozSnwrf6JVXW-IfmkyOd-62" value="&lt;font style=&quot;font-size: 15px;&quot;&gt;......&lt;/font&gt;" style="text;html=1;strokeColor=none;fillColor=none;align=center;verticalAlign=middle;whiteSpace=wrap;rounded=0;glass=0;fillStyle=auto;fontFamily=Verdana;fontSize=25;" vertex="1" parent="1">
          <mxGeometry x="581" y="925" width="60" height="30" as="geometry" />
        </mxCell>
        <mxCell id="ozSnwrf6JVXW-IfmkyOd-63" value="&lt;font style=&quot;font-size: 15px;&quot;&gt;C1W1&lt;/font&gt;" style="text;html=1;strokeColor=none;fillColor=none;align=center;verticalAlign=middle;whiteSpace=wrap;rounded=0;glass=0;fillStyle=auto;fontFamily=Verdana;fontSize=25;" vertex="1" parent="1">
          <mxGeometry x="691" y="930" width="60" height="30" as="geometry" />
        </mxCell>
        <mxCell id="ozSnwrf6JVXW-IfmkyOd-64" value="&lt;font style=&quot;font-size: 15px;&quot;&gt;......&lt;/font&gt;" style="text;html=1;strokeColor=none;fillColor=none;align=center;verticalAlign=middle;whiteSpace=wrap;rounded=0;glass=0;fillStyle=auto;fontFamily=Verdana;fontSize=25;" vertex="1" parent="1">
          <mxGeometry x="744" y="925" width="60" height="30" as="geometry" />
        </mxCell>
        <mxCell id="ozSnwrf6JVXW-IfmkyOd-65" value="&lt;font style=&quot;font-size: 15px;&quot;&gt;C1Wn&lt;/font&gt;" style="text;html=1;strokeColor=none;fillColor=none;align=center;verticalAlign=middle;whiteSpace=wrap;rounded=0;glass=0;fillStyle=auto;fontFamily=Verdana;fontSize=25;" vertex="1" parent="1">
          <mxGeometry x="800" y="930" width="60" height="30" as="geometry" />
        </mxCell>
        <mxCell id="ozSnwrf6JVXW-IfmkyOd-75" value="&lt;font style=&quot;font-size: 15px;&quot;&gt;CnW1&lt;/font&gt;" style="text;html=1;strokeColor=none;fillColor=none;align=center;verticalAlign=middle;whiteSpace=wrap;rounded=0;glass=0;fillStyle=auto;fontFamily=Verdana;fontSize=25;" vertex="1" parent="1">
          <mxGeometry x="906" y="928" width="60" height="30" as="geometry" />
        </mxCell>
        <mxCell id="ozSnwrf6JVXW-IfmkyOd-76" value="&lt;font style=&quot;font-size: 15px;&quot;&gt;......&lt;/font&gt;" style="text;html=1;strokeColor=none;fillColor=none;align=center;verticalAlign=middle;whiteSpace=wrap;rounded=0;glass=0;fillStyle=auto;fontFamily=Verdana;fontSize=25;" vertex="1" parent="1">
          <mxGeometry x="958" y="924" width="60" height="30" as="geometry" />
        </mxCell>
        <mxCell id="ozSnwrf6JVXW-IfmkyOd-77" value="&lt;font style=&quot;font-size: 15px;&quot;&gt;CnWm&lt;/font&gt;" style="text;html=1;strokeColor=none;fillColor=none;align=center;verticalAlign=middle;whiteSpace=wrap;rounded=0;glass=0;fillStyle=auto;fontFamily=Verdana;fontSize=25;" vertex="1" parent="1">
          <mxGeometry x="1014" y="928" width="60" height="30" as="geometry" />
        </mxCell>
        <mxCell id="ozSnwrf6JVXW-IfmkyOd-155" value="&lt;font style=&quot;font-size: 15px;&quot;&gt;SW1&lt;/font&gt;" style="text;html=1;strokeColor=none;fillColor=none;align=center;verticalAlign=middle;whiteSpace=wrap;rounded=0;glass=0;fillStyle=auto;fontFamily=Verdana;fontSize=25;" vertex="1" parent="1">
          <mxGeometry x="424" y="970" width="60" height="30" as="geometry" />
        </mxCell>
        <mxCell id="ozSnwrf6JVXW-IfmkyOd-156" value="&lt;font style=&quot;font-size: 15px;&quot;&gt;SW2&lt;/font&gt;" style="text;html=1;strokeColor=none;fillColor=none;align=center;verticalAlign=middle;whiteSpace=wrap;rounded=0;glass=0;fillStyle=auto;fontFamily=Verdana;fontSize=25;" vertex="1" parent="1">
          <mxGeometry x="424" y="1020" width="60" height="30" as="geometry" />
        </mxCell>
        <mxCell id="ozSnwrf6JVXW-IfmkyOd-157" value="&lt;font style=&quot;font-size: 15px;&quot;&gt;......&lt;/font&gt;" style="text;html=1;strokeColor=none;fillColor=none;align=center;verticalAlign=middle;whiteSpace=wrap;rounded=0;glass=0;fillStyle=auto;fontFamily=Verdana;fontSize=25;rotation=-90;" vertex="1" parent="1">
          <mxGeometry x="412" y="1078" width="60" height="30" as="geometry" />
        </mxCell>
        <mxCell id="ozSnwrf6JVXW-IfmkyOd-158" value="&lt;font style=&quot;font-size: 15px;&quot;&gt;SWn&lt;/font&gt;" style="text;html=1;strokeColor=none;fillColor=none;align=center;verticalAlign=middle;whiteSpace=wrap;rounded=0;glass=0;fillStyle=auto;fontFamily=Verdana;fontSize=25;" vertex="1" parent="1">
          <mxGeometry x="424" y="1126" width="60" height="30" as="geometry" />
        </mxCell>
        <mxCell id="ozSnwrf6JVXW-IfmkyOd-159" value="&lt;font style=&quot;font-size: 15px;&quot;&gt;C1W1&lt;/font&gt;" style="text;html=1;strokeColor=none;fillColor=none;align=center;verticalAlign=middle;whiteSpace=wrap;rounded=0;glass=0;fillStyle=auto;fontFamily=Verdana;fontSize=25;" vertex="1" parent="1">
          <mxGeometry x="423" y="1180" width="60" height="30" as="geometry" />
        </mxCell>
        <mxCell id="ozSnwrf6JVXW-IfmkyOd-160" value="&lt;font style=&quot;font-size: 15px;&quot;&gt;......&lt;/font&gt;" style="text;html=1;strokeColor=none;fillColor=none;align=center;verticalAlign=middle;whiteSpace=wrap;rounded=0;glass=0;fillStyle=auto;fontFamily=Verdana;fontSize=25;rotation=-90;" vertex="1" parent="1">
          <mxGeometry x="412" y="1240" width="60" height="30" as="geometry" />
        </mxCell>
        <mxCell id="ozSnwrf6JVXW-IfmkyOd-161" value="&lt;font style=&quot;font-size: 15px;&quot;&gt;C1Wn&lt;/font&gt;" style="text;html=1;strokeColor=none;fillColor=none;align=center;verticalAlign=middle;whiteSpace=wrap;rounded=0;glass=0;fillStyle=auto;fontFamily=Verdana;fontSize=25;" vertex="1" parent="1">
          <mxGeometry x="421" y="1285" width="60" height="30" as="geometry" />
        </mxCell>
        <mxCell id="ozSnwrf6JVXW-IfmkyOd-162" value="&lt;font style=&quot;font-size: 15px;&quot;&gt;CnW1&lt;/font&gt;" style="text;html=1;strokeColor=none;fillColor=none;align=center;verticalAlign=middle;whiteSpace=wrap;rounded=0;glass=0;fillStyle=auto;fontFamily=Verdana;fontSize=25;" vertex="1" parent="1">
          <mxGeometry x="424" y="1393" width="60" height="30" as="geometry" />
        </mxCell>
        <mxCell id="ozSnwrf6JVXW-IfmkyOd-163" value="&lt;font style=&quot;font-size: 15px;&quot;&gt;......&lt;/font&gt;" style="text;html=1;strokeColor=none;fillColor=none;align=center;verticalAlign=middle;whiteSpace=wrap;rounded=0;glass=0;fillStyle=auto;fontFamily=Verdana;fontSize=25;rotation=-90;" vertex="1" parent="1">
          <mxGeometry x="412" y="1451" width="60" height="30" as="geometry" />
        </mxCell>
        <mxCell id="ozSnwrf6JVXW-IfmkyOd-164" value="&lt;font style=&quot;font-size: 15px;&quot;&gt;CnWm&lt;/font&gt;" style="text;html=1;strokeColor=none;fillColor=none;align=center;verticalAlign=middle;whiteSpace=wrap;rounded=0;glass=0;fillStyle=auto;fontFamily=Verdana;fontSize=25;" vertex="1" parent="1">
          <mxGeometry x="423" y="1502" width="60" height="30" as="geometry" />
        </mxCell>
        <mxCell id="ozSnwrf6JVXW-IfmkyOd-165" value="" style="shape=curlyBracket;whiteSpace=wrap;html=1;rounded=1;labelPosition=left;verticalLabelPosition=middle;align=right;verticalAlign=middle;fontFamily=Verdana;fontSize=12;rotation=90;" vertex="1" parent="1">
          <mxGeometry x="575" y="830" width="20" height="200" as="geometry" />
        </mxCell>
        <mxCell id="ozSnwrf6JVXW-IfmkyOd-166" value="&lt;font style=&quot;font-size: 16px;&quot;&gt;待分类文本&lt;/font&gt;" style="text;html=1;strokeColor=none;fillColor=none;align=center;verticalAlign=middle;whiteSpace=wrap;rounded=0;fontFamily=Verdana;fontSize=12;rotation=0;" vertex="1" parent="1">
          <mxGeometry x="536" y="894" width="95" height="30" as="geometry" />
        </mxCell>
        <mxCell id="ozSnwrf6JVXW-IfmkyOd-189" value="&lt;font style=&quot;font-size: 15px;&quot;&gt;......&lt;/font&gt;" style="text;html=1;strokeColor=none;fillColor=none;align=center;verticalAlign=middle;whiteSpace=wrap;rounded=0;glass=0;fillStyle=auto;fontFamily=Verdana;fontSize=25;" vertex="1" parent="1">
          <mxGeometry x="852" y="924" width="60" height="30" as="geometry" />
        </mxCell>
        <mxCell id="ozSnwrf6JVXW-IfmkyOd-190" value="&lt;font style=&quot;font-size: 15px;&quot;&gt;......&lt;/font&gt;" style="text;html=1;strokeColor=none;fillColor=none;align=center;verticalAlign=middle;whiteSpace=wrap;rounded=0;glass=0;fillStyle=auto;fontFamily=Verdana;fontSize=25;rotation=-90;" vertex="1" parent="1">
          <mxGeometry x="412" y="1340" width="60" height="30" as="geometry" />
        </mxCell>
        <mxCell id="ozSnwrf6JVXW-IfmkyOd-192" value="" style="shape=curlyBracket;whiteSpace=wrap;html=1;rounded=1;labelPosition=left;verticalLabelPosition=middle;align=right;verticalAlign=middle;fontFamily=Verdana;fontSize=12;rotation=90;" vertex="1" parent="1">
          <mxGeometry x="766" y="855" width="20" height="150" as="geometry" />
        </mxCell>
        <mxCell id="ozSnwrf6JVXW-IfmkyOd-193" value="&lt;font style=&quot;font-size: 16px;&quot;&gt;类别1&lt;/font&gt;" style="text;html=1;strokeColor=none;fillColor=none;align=center;verticalAlign=middle;whiteSpace=wrap;rounded=0;fontFamily=Verdana;fontSize=12;rotation=0;" vertex="1" parent="1">
          <mxGeometry x="728.5" y="895" width="95" height="30" as="geometry" />
        </mxCell>
        <mxCell id="ozSnwrf6JVXW-IfmkyOd-194" value="" style="shape=curlyBracket;whiteSpace=wrap;html=1;rounded=1;labelPosition=left;verticalLabelPosition=middle;align=right;verticalAlign=middle;fontFamily=Verdana;fontSize=12;rotation=90;" vertex="1" parent="1">
          <mxGeometry x="978" y="855" width="20" height="150" as="geometry" />
        </mxCell>
        <mxCell id="ozSnwrf6JVXW-IfmkyOd-195" value="&lt;font style=&quot;font-size: 16px;&quot;&gt;类别n&lt;/font&gt;" style="text;html=1;strokeColor=none;fillColor=none;align=center;verticalAlign=middle;whiteSpace=wrap;rounded=0;fontFamily=Verdana;fontSize=12;rotation=0;" vertex="1" parent="1">
          <mxGeometry x="940.5" y="895" width="95" height="30" as="geometry" />
        </mxCell>
        <mxCell id="ozSnwrf6JVXW-IfmkyOd-196" value="" style="shape=curlyBracket;whiteSpace=wrap;html=1;rounded=1;labelPosition=left;verticalLabelPosition=middle;align=right;verticalAlign=middle;fontFamily=Verdana;fontSize=12;rotation=0;" vertex="1" parent="1">
          <mxGeometry x="412" y="980" width="20" height="180" as="geometry" />
        </mxCell>
        <mxCell id="ozSnwrf6JVXW-IfmkyOd-197" value="&lt;font style=&quot;font-size: 16px;&quot;&gt;待分类文本&lt;/font&gt;" style="text;html=1;strokeColor=none;fillColor=none;align=center;verticalAlign=middle;whiteSpace=wrap;rounded=0;fontFamily=Verdana;fontSize=12;rotation=0;" vertex="1" parent="1">
          <mxGeometry x="317" y="1055" width="95" height="30" as="geometry" />
        </mxCell>
        <mxCell id="ozSnwrf6JVXW-IfmkyOd-198" value="" style="shape=curlyBracket;whiteSpace=wrap;html=1;rounded=1;labelPosition=left;verticalLabelPosition=middle;align=right;verticalAlign=middle;fontFamily=Verdana;fontSize=12;rotation=0;" vertex="1" parent="1">
          <mxGeometry x="410" y="1190" width="20" height="130" as="geometry" />
        </mxCell>
        <mxCell id="ozSnwrf6JVXW-IfmkyOd-199" value="&lt;font style=&quot;font-size: 16px;&quot;&gt;类别1&lt;/font&gt;" style="text;html=1;strokeColor=none;fillColor=none;align=center;verticalAlign=middle;whiteSpace=wrap;rounded=0;fontFamily=Verdana;fontSize=12;rotation=0;" vertex="1" parent="1">
          <mxGeometry x="350" y="1240" width="66" height="30" as="geometry" />
        </mxCell>
        <mxCell id="ozSnwrf6JVXW-IfmkyOd-200" value="" style="shape=curlyBracket;whiteSpace=wrap;html=1;rounded=1;labelPosition=left;verticalLabelPosition=middle;align=right;verticalAlign=middle;fontFamily=Verdana;fontSize=12;rotation=0;" vertex="1" parent="1">
          <mxGeometry x="410" y="1402" width="20" height="130" as="geometry" />
        </mxCell>
        <mxCell id="ozSnwrf6JVXW-IfmkyOd-201" value="&lt;font style=&quot;font-size: 16px;&quot;&gt;类别n&lt;/font&gt;" style="text;html=1;strokeColor=none;fillColor=none;align=center;verticalAlign=middle;whiteSpace=wrap;rounded=0;fontFamily=Verdana;fontSize=12;rotation=0;" vertex="1" parent="1">
          <mxGeometry x="350" y="1452" width="66" height="30" as="geometry" />
        </mxCell>
        <mxCell id="ozSnwrf6JVXW-IfmkyOd-202" value="" style="shape=curlyBracket;whiteSpace=wrap;html=1;rounded=1;labelPosition=left;verticalLabelPosition=middle;align=right;verticalAlign=middle;fontFamily=Verdana;fontSize=12;rotation=90;" vertex="1" parent="1">
          <mxGeometry x="266" y="1545" width="20" height="230" as="geometry" />
        </mxCell>
        <mxCell id="ozSnwrf6JVXW-IfmkyOd-203" value="&lt;font style=&quot;font-size: 14px;&quot;&gt;待分类文本&lt;/font&gt;" style="text;html=1;strokeColor=none;fillColor=none;align=center;verticalAlign=middle;whiteSpace=wrap;rounded=0;fontFamily=Verdana;fontSize=12;rotation=0;" vertex="1" parent="1">
          <mxGeometry x="241" y="1625" width="80" height="30" as="geometry" />
        </mxCell>
        <mxCell id="ozSnwrf6JVXW-IfmkyOd-204" value="" style="shape=curlyBracket;whiteSpace=wrap;html=1;rounded=1;labelPosition=left;verticalLabelPosition=middle;align=right;verticalAlign=middle;fontFamily=Verdana;fontSize=12;rotation=90;" vertex="1" parent="1">
          <mxGeometry x="509" y="1540" width="20" height="240" as="geometry" />
        </mxCell>
        <mxCell id="ozSnwrf6JVXW-IfmkyOd-205" value="类别描述" style="text;html=1;strokeColor=none;fillColor=none;align=center;verticalAlign=middle;whiteSpace=wrap;rounded=0;fontFamily=Verdana;fontSize=14;rotation=0;" vertex="1" parent="1">
          <mxGeometry x="485" y="1626" width="66" height="30" as="geometry" />
        </mxCell>
        <mxCell id="ozSnwrf6JVXW-IfmkyOd-206" value="&lt;font style=&quot;font-size: 12px;&quot;&gt;SW1&lt;/font&gt;" style="rounded=0;whiteSpace=wrap;html=1;rotation=0;" vertex="1" parent="1">
          <mxGeometry x="159" y="1681" width="40" height="40" as="geometry" />
        </mxCell>
        <mxCell id="ozSnwrf6JVXW-IfmkyOd-207" value="&lt;font style=&quot;font-size: 12px;&quot;&gt;SW2&lt;/font&gt;" style="rounded=0;whiteSpace=wrap;html=1;rotation=0;" vertex="1" parent="1">
          <mxGeometry x="199" y="1681" width="40" height="40" as="geometry" />
        </mxCell>
        <mxCell id="ozSnwrf6JVXW-IfmkyOd-208" value="SW3" style="rounded=0;whiteSpace=wrap;html=1;rotation=0;" vertex="1" parent="1">
          <mxGeometry x="239" y="1681" width="40" height="40" as="geometry" />
        </mxCell>
        <mxCell id="ozSnwrf6JVXW-IfmkyOd-209" value="&lt;font style=&quot;font-size: 12px;&quot;&gt;SW4&lt;/font&gt;" style="rounded=0;whiteSpace=wrap;html=1;rotation=0;" vertex="1" parent="1">
          <mxGeometry x="279" y="1681" width="40" height="40" as="geometry" />
        </mxCell>
        <mxCell id="ozSnwrf6JVXW-IfmkyOd-210" value="&lt;font style=&quot;font-size: 12px;&quot;&gt;SW5&lt;/font&gt;" style="rounded=0;whiteSpace=wrap;html=1;rotation=0;" vertex="1" parent="1">
          <mxGeometry x="319" y="1681" width="40" height="40" as="geometry" />
        </mxCell>
        <mxCell id="ozSnwrf6JVXW-IfmkyOd-211" value="......" style="rounded=0;whiteSpace=wrap;html=1;rotation=0;" vertex="1" parent="1">
          <mxGeometry x="359" y="1681" width="40" height="40" as="geometry" />
        </mxCell>
        <mxCell id="ozSnwrf6JVXW-IfmkyOd-212" value="CW1" style="rounded=0;whiteSpace=wrap;html=1;rotation=0;" vertex="1" parent="1">
          <mxGeometry x="399" y="1681" width="40" height="40" as="geometry" />
        </mxCell>
        <mxCell id="ozSnwrf6JVXW-IfmkyOd-213" value="CW2" style="rounded=0;whiteSpace=wrap;html=1;rotation=0;" vertex="1" parent="1">
          <mxGeometry x="439" y="1681" width="40" height="40" as="geometry" />
        </mxCell>
        <mxCell id="ozSnwrf6JVXW-IfmkyOd-214" value="CW3" style="rounded=0;whiteSpace=wrap;html=1;rotation=0;" vertex="1" parent="1">
          <mxGeometry x="479" y="1681" width="40" height="40" as="geometry" />
        </mxCell>
        <mxCell id="ozSnwrf6JVXW-IfmkyOd-215" value="CW4" style="rounded=0;whiteSpace=wrap;html=1;rotation=0;" vertex="1" parent="1">
          <mxGeometry x="519" y="1681" width="40" height="40" as="geometry" />
        </mxCell>
        <mxCell id="ozSnwrf6JVXW-IfmkyOd-216" value="CW5" style="rounded=0;whiteSpace=wrap;html=1;rotation=0;" vertex="1" parent="1">
          <mxGeometry x="559" y="1681" width="40" height="40" as="geometry" />
        </mxCell>
        <mxCell id="ozSnwrf6JVXW-IfmkyOd-217" value="......" style="rounded=0;whiteSpace=wrap;html=1;rotation=0;" vertex="1" parent="1">
          <mxGeometry x="599" y="1681" width="40" height="40" as="geometry" />
        </mxCell>
        <mxCell id="ozSnwrf6JVXW-IfmkyOd-218" value="" style="shape=curlyBracket;whiteSpace=wrap;html=1;rounded=1;labelPosition=left;verticalLabelPosition=middle;align=right;verticalAlign=middle;fontFamily=Verdana;fontSize=12;rotation=-90;" vertex="1" parent="1">
          <mxGeometry x="188" y="1705" width="20" height="70" as="geometry" />
        </mxCell>
        <mxCell id="ozSnwrf6JVXW-IfmkyOd-220" value="&lt;span style=&quot;font-size: 14px;&quot;&gt;Entity&lt;/span&gt;" style="text;html=1;strokeColor=none;fillColor=none;align=center;verticalAlign=middle;whiteSpace=wrap;rounded=0;fontFamily=Verdana;fontSize=12;rotation=0;" vertex="1" parent="1">
          <mxGeometry x="158" y="1747" width="80" height="30" as="geometry" />
        </mxCell>
        <mxCell id="ozSnwrf6JVXW-IfmkyOd-221" value="" style="shape=curlyBracket;whiteSpace=wrap;html=1;rounded=1;labelPosition=left;verticalLabelPosition=middle;align=right;verticalAlign=middle;fontFamily=Verdana;fontSize=12;rotation=-90;" vertex="1" parent="1">
          <mxGeometry x="269" y="1705" width="20" height="70" as="geometry" />
        </mxCell>
        <mxCell id="ozSnwrf6JVXW-IfmkyOd-222" value="&lt;span style=&quot;font-size: 14px;&quot;&gt;Others&lt;/span&gt;" style="text;html=1;strokeColor=none;fillColor=none;align=center;verticalAlign=middle;whiteSpace=wrap;rounded=0;fontFamily=Verdana;fontSize=12;rotation=0;" vertex="1" parent="1">
          <mxGeometry x="238" y="1747" width="80" height="30" as="geometry" />
        </mxCell>
        <mxCell id="ozSnwrf6JVXW-IfmkyOd-223" value="" style="shape=curlyBracket;whiteSpace=wrap;html=1;rounded=1;labelPosition=left;verticalLabelPosition=middle;align=right;verticalAlign=middle;fontFamily=Verdana;fontSize=12;rotation=-90;" vertex="1" parent="1">
          <mxGeometry x="327.5" y="1722.5" width="20" height="35" as="geometry" />
        </mxCell>
        <mxCell id="ozSnwrf6JVXW-IfmkyOd-224" value="&lt;span style=&quot;font-size: 14px;&quot;&gt;StopWord&lt;/span&gt;" style="text;html=1;strokeColor=none;fillColor=none;align=center;verticalAlign=middle;whiteSpace=wrap;rounded=0;fontFamily=Verdana;fontSize=12;rotation=0;" vertex="1" parent="1">
          <mxGeometry x="310.5" y="1747" width="80" height="30" as="geometry" />
        </mxCell>
        <mxCell id="ozSnwrf6JVXW-IfmkyOd-225" value="" style="shape=curlyBracket;whiteSpace=wrap;html=1;rounded=1;labelPosition=left;verticalLabelPosition=middle;align=right;verticalAlign=middle;fontFamily=Verdana;fontSize=12;rotation=-90;" vertex="1" parent="1">
          <mxGeometry x="428.5" y="1705" width="20" height="70" as="geometry" />
        </mxCell>
        <mxCell id="ozSnwrf6JVXW-IfmkyOd-226" value="&lt;span style=&quot;font-size: 14px;&quot;&gt;Entity&lt;/span&gt;" style="text;html=1;strokeColor=none;fillColor=none;align=center;verticalAlign=middle;whiteSpace=wrap;rounded=0;fontFamily=Verdana;fontSize=12;rotation=0;" vertex="1" parent="1">
          <mxGeometry x="398.5" y="1747" width="80" height="30" as="geometry" />
        </mxCell>
        <mxCell id="ozSnwrf6JVXW-IfmkyOd-227" value="" style="shape=curlyBracket;whiteSpace=wrap;html=1;rounded=1;labelPosition=left;verticalLabelPosition=middle;align=right;verticalAlign=middle;fontFamily=Verdana;fontSize=12;rotation=-90;" vertex="1" parent="1">
          <mxGeometry x="509.5" y="1705" width="20" height="70" as="geometry" />
        </mxCell>
        <mxCell id="ozSnwrf6JVXW-IfmkyOd-228" value="&lt;span style=&quot;font-size: 14px;&quot;&gt;Others&lt;/span&gt;" style="text;html=1;strokeColor=none;fillColor=none;align=center;verticalAlign=middle;whiteSpace=wrap;rounded=0;fontFamily=Verdana;fontSize=12;rotation=0;" vertex="1" parent="1">
          <mxGeometry x="478.5" y="1747" width="80" height="30" as="geometry" />
        </mxCell>
        <mxCell id="ozSnwrf6JVXW-IfmkyOd-229" value="" style="shape=curlyBracket;whiteSpace=wrap;html=1;rounded=1;labelPosition=left;verticalLabelPosition=middle;align=right;verticalAlign=middle;fontFamily=Verdana;fontSize=12;rotation=-90;" vertex="1" parent="1">
          <mxGeometry x="568" y="1722.5" width="20" height="35" as="geometry" />
        </mxCell>
        <mxCell id="ozSnwrf6JVXW-IfmkyOd-230" value="&lt;span style=&quot;font-size: 14px;&quot;&gt;StopWord&lt;/span&gt;" style="text;html=1;strokeColor=none;fillColor=none;align=center;verticalAlign=middle;whiteSpace=wrap;rounded=0;fontFamily=Verdana;fontSize=12;rotation=0;" vertex="1" parent="1">
          <mxGeometry x="551" y="1747" width="80" height="30" as="geometry" />
        </mxCell>
        <mxCell id="ozSnwrf6JVXW-IfmkyOd-234" value="" style="shape=partialRectangle;whiteSpace=wrap;html=1;bottom=1;right=1;left=1;top=0;fillColor=none;routingCenterX=-0.5;glass=0;fillStyle=auto;fontFamily=Verdana;fontSize=16;" vertex="1" parent="1">
          <mxGeometry x="200" y="1777" width="240" height="25" as="geometry" />
        </mxCell>
        <mxCell id="ozSnwrf6JVXW-IfmkyOd-235" value="&lt;span style=&quot;font-weight: normal;&quot;&gt;&lt;font style=&quot;font-size: 12px;&quot;&gt;E-E&lt;/font&gt;&lt;/span&gt;" style="text;strokeColor=none;fillColor=none;html=1;fontSize=24;fontStyle=1;verticalAlign=middle;align=center;glass=0;fillStyle=auto;fontFamily=Verdana;" vertex="1" parent="1">
          <mxGeometry x="295" y="1778" width="50" height="20" as="geometry" />
        </mxCell>
        <mxCell id="ozSnwrf6JVXW-IfmkyOd-237" value="O-EO" style="text;html=1;strokeColor=none;fillColor=none;align=center;verticalAlign=middle;whiteSpace=wrap;rounded=0;glass=0;fillStyle=auto;fontFamily=Verdana;fontSize=12;" vertex="1" parent="1">
          <mxGeometry x="334.5" y="1812" width="60" height="30" as="geometry" />
        </mxCell>
        <mxCell id="ozSnwrf6JVXW-IfmkyOd-239" value="SW" style="text;html=1;strokeColor=none;fillColor=none;align=center;verticalAlign=middle;whiteSpace=wrap;rounded=0;glass=0;fillStyle=auto;fontFamily=Verdana;fontSize=12;" vertex="1" parent="1">
          <mxGeometry x="836" y="1790" width="60" height="30" as="geometry" />
        </mxCell>
        <mxCell id="ozSnwrf6JVXW-IfmkyOd-246" value="SW" style="text;html=1;strokeColor=none;fillColor=none;align=center;verticalAlign=middle;whiteSpace=wrap;rounded=0;glass=0;fillStyle=auto;fontFamily=Verdana;fontSize=12;" vertex="1" parent="1">
          <mxGeometry x="370" y="1846" width="60" height="30" as="geometry" />
        </mxCell>
        <mxCell id="ozSnwrf6JVXW-IfmkyOd-249" value="O-EO" style="text;html=1;strokeColor=none;fillColor=none;align=center;verticalAlign=middle;whiteSpace=wrap;rounded=0;glass=0;fillStyle=auto;fontFamily=Verdana;fontSize=12;" vertex="1" parent="1">
          <mxGeometry x="327.5" y="1886" width="60" height="30" as="geometry" />
        </mxCell>
        <mxCell id="ozSnwrf6JVXW-IfmkyOd-251" value="O-EO" style="text;html=1;strokeColor=none;fillColor=none;align=center;verticalAlign=middle;whiteSpace=wrap;rounded=0;glass=0;fillStyle=auto;fontFamily=Verdana;fontSize=12;" vertex="1" parent="1">
          <mxGeometry x="368.5" y="1921" width="60" height="30" as="geometry" />
        </mxCell>
        <mxCell id="ozSnwrf6JVXW-IfmkyOd-253" value="SW" style="text;html=1;strokeColor=none;fillColor=none;align=center;verticalAlign=middle;whiteSpace=wrap;rounded=0;glass=0;fillStyle=auto;fontFamily=Verdana;fontSize=12;" vertex="1" parent="1">
          <mxGeometry x="406" y="1955" width="60" height="30" as="geometry" />
        </mxCell>
        <mxCell id="ozSnwrf6JVXW-IfmkyOd-267" value="Linear" style="rounded=0;whiteSpace=wrap;html=1;fontFamily=Verdana;fontSize=27;labelPosition=center;verticalLabelPosition=middle;align=center;verticalAlign=middle;rotation=0;fillStyle=auto;fillColor=#f5f5f5;fontColor=#333333;strokeColor=#666666;glass=0;" vertex="1" parent="1">
          <mxGeometry x="78.5" y="57" width="821.5" height="41.38" as="geometry" />
        </mxCell>
        <mxCell id="ozSnwrf6JVXW-IfmkyOd-270" value="" style="endArrow=classic;html=1;rounded=0;strokeColor=#000000;strokeWidth=3;fontFamily=Verdana;fontSize=14;" edge="1" parent="1">
          <mxGeometry width="50" height="50" relative="1" as="geometry">
            <mxPoint x="482" y="56" as="sourcePoint" />
            <mxPoint x="482" y="14" as="targetPoint" />
          </mxGeometry>
        </mxCell>
      </root>
    </mxGraphModel>
  </diagram>
</mxfile>
